%FSLAX34Y34*%
G04 Gerber Fmt 3.4, Leading zero omitted, Abs format*
G04 (created by PCBNEW (2013-12-18 BZR 4557)-product) date vie 25 abr 2014 17:22:53 CLST*
%MOIN*%
G01*
G70*
G90*
G04 APERTURE LIST*
%ADD10C,0.005906*%
%ADD11C,0.003500*%
G04 APERTURE END LIST*
G54D10*
G54D11*
X53196Y-32651D02*
X53196Y-31951D01*
X53430Y-32451D01*
X53663Y-31951D01*
X53663Y-32651D01*
X54396Y-32584D02*
X54363Y-32617D01*
X54263Y-32651D01*
X54196Y-32651D01*
X54096Y-32617D01*
X54030Y-32551D01*
X53996Y-32484D01*
X53963Y-32351D01*
X53963Y-32251D01*
X53996Y-32117D01*
X54030Y-32051D01*
X54096Y-31984D01*
X54196Y-31951D01*
X54263Y-31951D01*
X54363Y-31984D01*
X54396Y-32017D01*
X54696Y-31951D02*
X54696Y-32517D01*
X54730Y-32584D01*
X54763Y-32617D01*
X54830Y-32651D01*
X54963Y-32651D01*
X55030Y-32617D01*
X55063Y-32584D01*
X55096Y-32517D01*
X55096Y-31951D01*
X55796Y-32651D02*
X55396Y-32651D01*
X55596Y-32651D02*
X55596Y-31951D01*
X55530Y-32051D01*
X55463Y-32117D01*
X55396Y-32151D01*
X50109Y-36182D02*
X50109Y-35482D01*
X50376Y-35482D01*
X50442Y-35516D01*
X50476Y-35549D01*
X50509Y-35616D01*
X50509Y-35716D01*
X50476Y-35782D01*
X50442Y-35816D01*
X50376Y-35849D01*
X50109Y-35849D01*
X50809Y-36182D02*
X50809Y-35482D01*
X51542Y-36116D02*
X51509Y-36149D01*
X51409Y-36182D01*
X51342Y-36182D01*
X51242Y-36149D01*
X51176Y-36082D01*
X51142Y-36016D01*
X51109Y-35882D01*
X51109Y-35782D01*
X51142Y-35649D01*
X51176Y-35582D01*
X51242Y-35516D01*
X51342Y-35482D01*
X51409Y-35482D01*
X51509Y-35516D01*
X51542Y-35549D01*
X51809Y-35549D02*
X51842Y-35516D01*
X51909Y-35482D01*
X52076Y-35482D01*
X52142Y-35516D01*
X52176Y-35549D01*
X52209Y-35616D01*
X52209Y-35682D01*
X52176Y-35782D01*
X51776Y-36182D01*
X52209Y-36182D01*
X52809Y-35716D02*
X52809Y-36182D01*
X52642Y-35449D02*
X52476Y-35949D01*
X52909Y-35949D01*
X53409Y-35816D02*
X53176Y-35816D01*
X53176Y-36182D02*
X53176Y-35482D01*
X53509Y-35482D01*
X53976Y-35482D02*
X53976Y-35982D01*
X53942Y-36082D01*
X53876Y-36149D01*
X53776Y-36182D01*
X53709Y-36182D01*
X54276Y-35549D02*
X54309Y-35516D01*
X54376Y-35482D01*
X54542Y-35482D01*
X54609Y-35516D01*
X54642Y-35549D01*
X54676Y-35616D01*
X54676Y-35682D01*
X54642Y-35782D01*
X54242Y-36182D01*
X54676Y-36182D01*
X55309Y-35482D02*
X54976Y-35482D01*
X54942Y-35816D01*
X54976Y-35782D01*
X55042Y-35749D01*
X55209Y-35749D01*
X55276Y-35782D01*
X55309Y-35816D01*
X55342Y-35882D01*
X55342Y-36049D01*
X55309Y-36116D01*
X55276Y-36149D01*
X55209Y-36182D01*
X55042Y-36182D01*
X54976Y-36149D01*
X54942Y-36116D01*
X55942Y-35482D02*
X55809Y-35482D01*
X55742Y-35516D01*
X55709Y-35549D01*
X55642Y-35649D01*
X55609Y-35782D01*
X55609Y-36049D01*
X55642Y-36116D01*
X55676Y-36149D01*
X55742Y-36182D01*
X55876Y-36182D01*
X55942Y-36149D01*
X55976Y-36116D01*
X56009Y-36049D01*
X56009Y-35882D01*
X55976Y-35816D01*
X55942Y-35782D01*
X55876Y-35749D01*
X55742Y-35749D01*
X55676Y-35782D01*
X55642Y-35816D01*
X55609Y-35882D01*
X56676Y-35516D02*
X56609Y-35482D01*
X56509Y-35482D01*
X56409Y-35516D01*
X56342Y-35582D01*
X56309Y-35649D01*
X56276Y-35782D01*
X56276Y-35882D01*
X56309Y-36016D01*
X56342Y-36082D01*
X56409Y-36149D01*
X56509Y-36182D01*
X56576Y-36182D01*
X56676Y-36149D01*
X56709Y-36116D01*
X56709Y-35882D01*
X56576Y-35882D01*
X56976Y-35982D02*
X57309Y-35982D01*
X56909Y-36182D02*
X57142Y-35482D01*
X57376Y-36182D01*
X57976Y-36182D02*
X57576Y-36182D01*
X57776Y-36182D02*
X57776Y-35482D01*
X57709Y-35582D01*
X57642Y-35649D01*
X57576Y-35682D01*
X58642Y-36182D02*
X58242Y-36182D01*
X58442Y-36182D02*
X58442Y-35482D01*
X58376Y-35582D01*
X58309Y-35649D01*
X58242Y-35682D01*
X59076Y-35482D02*
X59142Y-35482D01*
X59209Y-35516D01*
X59242Y-35549D01*
X59276Y-35616D01*
X59309Y-35749D01*
X59309Y-35916D01*
X59276Y-36049D01*
X59242Y-36116D01*
X59209Y-36149D01*
X59142Y-36182D01*
X59076Y-36182D01*
X59009Y-36149D01*
X58976Y-36116D01*
X58942Y-36049D01*
X58909Y-35916D01*
X58909Y-35749D01*
X58942Y-35616D01*
X58976Y-35549D01*
X59009Y-35516D01*
X59076Y-35482D01*
M02*
