M48
METRIC,TZ
T1C0.635
T2C0.813
T3C1.016
T4C3.250
%
G90
G05
T1
X125.5Y-87.25
X127.25Y-104.5
X127.5Y-93.25
X129.Y-96.
X145.5Y-97.
X146.5Y-95.5
X162.Y-106.5
T2
X127.448Y-110.9
X128.718Y-108.36
X129.988Y-110.9
X131.258Y-108.36
X132.528Y-110.9
X133.798Y-108.36
T3
X148.65Y-117.5
X151.19Y-117.5
X152.92Y-73.
X153.73Y-117.5
X155.46Y-73.
X156.27Y-117.5
X158.Y-73.
X158.81Y-117.5
X160.54Y-73.
X161.35Y-117.5
X163.08Y-73.
X166.5Y-106.48
X166.5Y-109.02
T4
X123.892Y-112.932
X137.354Y-112.932
T0
M30
