%FSLAX34Y34*%
G04 Gerber Fmt 3.4, Leading zero omitted, Abs format*
G04 (created by PCBNEW (2013-12-18 BZR 4557)-product) date lun 14 abr 2014 17:53:11 CLST*
%MOIN*%
G01*
G70*
G90*
G04 APERTURE LIST*
%ADD10C,0.005906*%
%ADD11R,0.060000X0.080000*%
%ADD12R,0.080000X0.060000*%
%ADD13C,0.060000*%
%ADD14C,0.118100*%
%ADD15R,0.060000X0.060000*%
%ADD16R,0.082700X0.220500*%
%ADD17R,0.011000X0.059000*%
%ADD18R,0.059000X0.011000*%
%ADD19C,0.035000*%
%ADD20C,0.011024*%
%ADD21C,0.010000*%
G04 APERTURE END LIST*
G54D10*
G54D11*
X49468Y-31496D03*
X48168Y-31496D03*
X49468Y-35433D03*
X48168Y-35433D03*
G54D12*
X52755Y-38720D03*
X52755Y-40020D03*
X54330Y-38720D03*
X54330Y-40020D03*
X56200Y-38720D03*
X56200Y-40020D03*
G54D11*
X64692Y-31940D03*
X65992Y-31940D03*
G54D12*
X59842Y-35570D03*
X59842Y-36870D03*
G54D11*
X55177Y-28543D03*
X53877Y-28543D03*
X64704Y-35826D03*
X66004Y-35826D03*
G54D13*
X51676Y-42661D03*
X50676Y-42661D03*
X52676Y-42661D03*
X50176Y-43661D03*
X51176Y-43661D03*
X52176Y-43661D03*
G54D14*
X54076Y-44461D03*
X48776Y-44461D03*
G54D15*
X65551Y-41921D03*
G54D13*
X65551Y-42921D03*
G54D11*
X48168Y-33464D03*
X49468Y-33464D03*
G54D15*
X58523Y-46259D03*
G54D13*
X59523Y-46259D03*
X60523Y-46259D03*
X61523Y-46259D03*
X62523Y-46259D03*
X63523Y-46259D03*
G54D16*
X62598Y-35767D03*
X62598Y-31949D03*
G54D17*
X52386Y-30650D03*
X52582Y-30650D03*
X52779Y-30650D03*
X52976Y-30650D03*
X53172Y-30650D03*
X53369Y-30650D03*
X53566Y-30650D03*
X53763Y-30650D03*
X53960Y-30650D03*
X54157Y-30650D03*
X54354Y-30650D03*
X54551Y-30650D03*
X54748Y-30650D03*
X54945Y-30650D03*
X55141Y-30650D03*
X55338Y-30650D03*
X55535Y-30650D03*
X55731Y-30650D03*
X55928Y-30650D03*
X56125Y-30650D03*
X56321Y-30650D03*
X56518Y-30650D03*
X56715Y-30650D03*
X56912Y-30650D03*
X57109Y-30650D03*
G54D18*
X57918Y-36186D03*
X57918Y-35989D03*
X57918Y-35792D03*
X57918Y-35595D03*
X57918Y-35398D03*
X57918Y-35202D03*
X57918Y-35005D03*
X57918Y-34808D03*
X57918Y-34612D03*
X57918Y-34415D03*
X57918Y-34218D03*
X57918Y-34022D03*
X57918Y-33825D03*
X57918Y-33628D03*
X57918Y-33431D03*
X57918Y-33234D03*
X57918Y-33037D03*
X57918Y-32840D03*
X57918Y-32643D03*
X57918Y-32446D03*
X57918Y-32249D03*
X57918Y-32053D03*
X57918Y-31856D03*
X57918Y-31659D03*
X57918Y-31463D03*
G54D17*
X57113Y-36995D03*
X56917Y-36995D03*
X56720Y-36995D03*
X56523Y-36995D03*
X56327Y-36995D03*
X56130Y-36995D03*
X55933Y-36995D03*
X55736Y-36995D03*
X55539Y-36995D03*
X55342Y-36995D03*
X55145Y-36995D03*
X54948Y-36995D03*
X54751Y-36995D03*
X54554Y-36995D03*
X54358Y-36995D03*
X54161Y-36995D03*
X53964Y-36995D03*
X53768Y-36995D03*
X53571Y-36995D03*
X53374Y-36995D03*
X53178Y-36995D03*
X52981Y-36995D03*
X52784Y-36995D03*
X52587Y-36995D03*
X52390Y-36995D03*
G54D18*
X51583Y-31457D03*
X51583Y-31654D03*
X51583Y-31851D03*
X51583Y-32048D03*
X51583Y-32245D03*
X51583Y-32441D03*
X51583Y-32638D03*
X51583Y-32835D03*
X51583Y-33031D03*
X51583Y-33228D03*
X51583Y-33425D03*
X51583Y-33621D03*
X51583Y-33818D03*
X51583Y-34015D03*
X51583Y-34212D03*
X51583Y-34409D03*
X51583Y-34606D03*
X51583Y-34803D03*
X51583Y-35000D03*
X51583Y-35197D03*
X51583Y-35394D03*
X51583Y-35590D03*
X51583Y-35787D03*
X51583Y-35984D03*
X51583Y-36180D03*
G54D15*
X60204Y-28740D03*
G54D13*
X61204Y-28740D03*
X62204Y-28740D03*
X63204Y-28740D03*
X64204Y-28740D03*
G54D19*
X50196Y-36712D03*
X50787Y-37795D03*
X57283Y-38188D03*
X57677Y-37598D03*
X49409Y-34350D03*
X50098Y-41141D03*
X63779Y-41929D03*
G54D20*
X55338Y-30650D02*
X55338Y-28480D01*
X55338Y-28480D02*
X55413Y-28405D01*
X57918Y-33825D02*
X60656Y-33825D01*
X60656Y-33825D02*
X62598Y-35767D01*
X64704Y-35826D02*
X62657Y-35826D01*
X62657Y-35826D02*
X62598Y-35767D01*
X57918Y-33628D02*
X60919Y-33628D01*
X60919Y-33628D02*
X62598Y-31949D01*
X64692Y-31940D02*
X62606Y-31940D01*
X62606Y-31940D02*
X62598Y-31949D01*
X50924Y-35984D02*
X51583Y-35984D01*
X50196Y-36712D02*
X50924Y-35984D01*
X51279Y-36484D02*
X51583Y-36180D01*
X51279Y-37303D02*
X51279Y-36484D01*
X50787Y-37795D02*
X51279Y-37303D01*
X56917Y-37921D02*
X56917Y-36995D01*
X57283Y-38188D02*
X56917Y-37921D01*
X57113Y-36995D02*
X57113Y-37472D01*
X57239Y-37598D02*
X57677Y-37598D01*
X57113Y-37472D02*
X57239Y-37598D01*
X49468Y-34290D02*
X49468Y-33464D01*
X49409Y-34350D02*
X49468Y-34290D01*
X51583Y-33818D02*
X49822Y-33818D01*
X49822Y-33818D02*
X49468Y-33464D01*
X56130Y-36995D02*
X56130Y-34912D01*
X56130Y-34912D02*
X56200Y-34842D01*
X54358Y-36995D02*
X54358Y-35165D01*
X54358Y-35165D02*
X54330Y-35137D01*
X53374Y-36995D02*
X53374Y-35067D01*
X53374Y-35067D02*
X53346Y-35039D01*
X51583Y-34212D02*
X53583Y-34212D01*
X53583Y-34212D02*
X53641Y-34153D01*
X57918Y-33431D02*
X58399Y-33431D01*
X58399Y-33431D02*
X59153Y-33070D01*
X57918Y-31463D02*
X58694Y-31463D01*
X58694Y-31463D02*
X59744Y-30413D01*
X57918Y-32643D02*
X59089Y-32643D01*
X63204Y-29216D02*
X63204Y-28740D01*
X62992Y-29429D02*
X63204Y-29216D01*
X62303Y-29429D02*
X62992Y-29429D01*
X59089Y-32643D02*
X62303Y-29429D01*
X57918Y-32446D02*
X58892Y-32446D01*
X62204Y-29133D02*
X62204Y-28740D01*
X58892Y-32446D02*
X62204Y-29133D01*
X57918Y-32249D02*
X58695Y-32249D01*
X61204Y-29740D02*
X61204Y-28740D01*
X58695Y-32249D02*
X61204Y-29740D01*
X57918Y-32053D02*
X58596Y-32053D01*
X60204Y-30444D02*
X60204Y-28740D01*
X58596Y-32053D02*
X60204Y-30444D01*
X50246Y-38533D02*
X50000Y-38779D01*
X50000Y-40944D02*
X50000Y-39862D01*
X50098Y-41141D02*
X50000Y-40944D01*
X50000Y-38779D02*
X50000Y-39862D01*
X54330Y-38720D02*
X56200Y-38720D01*
X54330Y-38720D02*
X52755Y-38720D01*
X51673Y-38720D02*
X52755Y-38720D01*
X49468Y-35433D02*
X49468Y-37756D01*
X50432Y-38720D02*
X51673Y-38720D01*
X49468Y-37756D02*
X50246Y-38533D01*
X50246Y-38533D02*
X50432Y-38720D01*
X51673Y-38720D02*
X51870Y-38720D01*
X53571Y-36995D02*
X53571Y-37669D01*
X52755Y-38484D02*
X52755Y-38720D01*
X53571Y-37669D02*
X52755Y-38484D01*
X59055Y-38582D02*
X58562Y-38090D01*
X60433Y-38582D02*
X59055Y-38582D01*
X63779Y-41929D02*
X60433Y-38582D01*
X49468Y-31496D02*
X49468Y-32164D01*
X49468Y-32164D02*
X48168Y-33464D01*
X49468Y-31496D02*
X49468Y-30118D01*
X50000Y-29527D02*
X50090Y-29527D01*
X50000Y-29527D02*
X49468Y-30118D01*
X51583Y-34409D02*
X50492Y-34409D01*
X50492Y-34409D02*
X49468Y-35433D01*
X51583Y-31654D02*
X49626Y-31654D01*
X56327Y-36995D02*
X56327Y-38691D01*
X56327Y-38691D02*
X56299Y-38720D01*
X54554Y-36995D02*
X54554Y-38496D01*
X54554Y-38496D02*
X54330Y-38720D01*
X55141Y-30650D02*
X55141Y-29748D01*
X54921Y-29527D02*
X50090Y-29527D01*
X55141Y-29748D02*
X54921Y-29527D01*
X56299Y-38720D02*
X57933Y-38720D01*
X59311Y-35570D02*
X59842Y-35570D01*
X59055Y-35826D02*
X59311Y-35570D01*
X59055Y-37598D02*
X59055Y-35826D01*
X57933Y-38720D02*
X58562Y-38090D01*
X58562Y-38090D02*
X59055Y-37598D01*
X57918Y-34022D02*
X59022Y-34022D01*
X59022Y-34022D02*
X59842Y-34842D01*
X59842Y-34842D02*
X59842Y-35570D01*
X51870Y-38720D02*
X51968Y-38720D01*
X48168Y-33464D02*
X48168Y-34133D01*
X48168Y-34133D02*
X49468Y-35433D01*
G54D10*
G36*
X66649Y-46964D02*
X66433Y-46964D01*
X66433Y-36252D01*
X66433Y-36201D01*
X66433Y-36058D01*
X66433Y-35594D01*
X66433Y-35452D01*
X66433Y-35401D01*
X66421Y-35372D01*
X66421Y-32366D01*
X66421Y-32315D01*
X66421Y-32173D01*
X66421Y-31708D01*
X66421Y-31566D01*
X66421Y-31515D01*
X66401Y-31468D01*
X66365Y-31431D01*
X66318Y-31412D01*
X66174Y-31412D01*
X66142Y-31444D01*
X66142Y-31740D01*
X66389Y-31740D01*
X66421Y-31708D01*
X66421Y-32173D01*
X66389Y-32140D01*
X66142Y-32140D01*
X66142Y-32437D01*
X66174Y-32469D01*
X66318Y-32469D01*
X66365Y-32450D01*
X66401Y-32413D01*
X66421Y-32366D01*
X66421Y-35372D01*
X66413Y-35353D01*
X66377Y-35317D01*
X66329Y-35298D01*
X66186Y-35298D01*
X66154Y-35330D01*
X66154Y-35626D01*
X66400Y-35626D01*
X66433Y-35594D01*
X66433Y-36058D01*
X66400Y-36026D01*
X66154Y-36026D01*
X66154Y-36323D01*
X66186Y-36355D01*
X66329Y-36355D01*
X66377Y-36335D01*
X66413Y-36299D01*
X66433Y-36252D01*
X66433Y-46964D01*
X66101Y-46964D01*
X66101Y-42270D01*
X66101Y-42171D01*
X66101Y-41571D01*
X66063Y-41479D01*
X65992Y-41409D01*
X65900Y-41371D01*
X65854Y-41371D01*
X65854Y-36323D01*
X65854Y-36026D01*
X65854Y-35626D01*
X65854Y-35330D01*
X65842Y-35318D01*
X65842Y-32437D01*
X65842Y-32140D01*
X65842Y-31740D01*
X65842Y-31444D01*
X65810Y-31412D01*
X65666Y-31412D01*
X65619Y-31431D01*
X65583Y-31468D01*
X65563Y-31515D01*
X65563Y-31566D01*
X65563Y-31708D01*
X65595Y-31740D01*
X65842Y-31740D01*
X65842Y-32140D01*
X65595Y-32140D01*
X65563Y-32173D01*
X65563Y-32315D01*
X65563Y-32366D01*
X65583Y-32413D01*
X65619Y-32450D01*
X65666Y-32469D01*
X65810Y-32469D01*
X65842Y-32437D01*
X65842Y-35318D01*
X65822Y-35298D01*
X65678Y-35298D01*
X65631Y-35317D01*
X65595Y-35353D01*
X65575Y-35401D01*
X65575Y-35452D01*
X65575Y-35594D01*
X65607Y-35626D01*
X65854Y-35626D01*
X65854Y-36026D01*
X65607Y-36026D01*
X65575Y-36058D01*
X65575Y-36201D01*
X65575Y-36252D01*
X65595Y-36299D01*
X65631Y-36335D01*
X65678Y-36355D01*
X65822Y-36355D01*
X65854Y-36323D01*
X65854Y-41371D01*
X65801Y-41371D01*
X65254Y-41371D01*
X65254Y-36276D01*
X65254Y-36177D01*
X65254Y-35377D01*
X65216Y-35285D01*
X65145Y-35214D01*
X65054Y-35176D01*
X64954Y-35176D01*
X64354Y-35176D01*
X64262Y-35214D01*
X64192Y-35285D01*
X64154Y-35377D01*
X64154Y-35476D01*
X64154Y-35521D01*
X63261Y-35521D01*
X63261Y-34615D01*
X63223Y-34523D01*
X63153Y-34452D01*
X63061Y-34414D01*
X62962Y-34414D01*
X62135Y-34414D01*
X62043Y-34452D01*
X61972Y-34523D01*
X61934Y-34615D01*
X61934Y-34672D01*
X61118Y-33855D01*
X61134Y-33844D01*
X61934Y-33044D01*
X61934Y-33101D01*
X61972Y-33193D01*
X62043Y-33263D01*
X62135Y-33301D01*
X62234Y-33301D01*
X63061Y-33301D01*
X63153Y-33263D01*
X63223Y-33193D01*
X63261Y-33101D01*
X63261Y-33002D01*
X63261Y-32246D01*
X64142Y-32246D01*
X64142Y-32390D01*
X64180Y-32482D01*
X64250Y-32552D01*
X64342Y-32590D01*
X64442Y-32590D01*
X65042Y-32590D01*
X65134Y-32552D01*
X65204Y-32482D01*
X65242Y-32390D01*
X65242Y-32291D01*
X65242Y-31491D01*
X65204Y-31399D01*
X65134Y-31329D01*
X65042Y-31290D01*
X64942Y-31290D01*
X64638Y-31290D01*
X64638Y-28690D01*
X64625Y-28620D01*
X64576Y-28580D01*
X64416Y-28740D01*
X64576Y-28900D01*
X64625Y-28860D01*
X64638Y-28690D01*
X64638Y-31290D01*
X64364Y-31290D01*
X64364Y-29112D01*
X64364Y-28368D01*
X64324Y-28319D01*
X64154Y-28305D01*
X64084Y-28319D01*
X64044Y-28368D01*
X64204Y-28528D01*
X64364Y-28368D01*
X64364Y-29112D01*
X64204Y-28952D01*
X64044Y-29112D01*
X64084Y-29160D01*
X64254Y-29174D01*
X64324Y-29160D01*
X64364Y-29112D01*
X64364Y-31290D01*
X64342Y-31290D01*
X64250Y-31329D01*
X64180Y-31399D01*
X64142Y-31491D01*
X64142Y-31590D01*
X64142Y-31635D01*
X63992Y-31635D01*
X63992Y-28740D01*
X63832Y-28580D01*
X63784Y-28620D01*
X63770Y-28790D01*
X63784Y-28860D01*
X63832Y-28900D01*
X63992Y-28740D01*
X63992Y-31635D01*
X63261Y-31635D01*
X63261Y-30797D01*
X63223Y-30705D01*
X63153Y-30634D01*
X63061Y-30596D01*
X62962Y-30596D01*
X62135Y-30596D01*
X62043Y-30634D01*
X61972Y-30705D01*
X61934Y-30797D01*
X61934Y-30896D01*
X61934Y-32181D01*
X60792Y-33323D01*
X58868Y-33323D01*
X58868Y-33247D01*
X58463Y-33247D01*
X58463Y-33239D01*
X58463Y-33141D01*
X58463Y-33129D01*
X58463Y-33042D01*
X58463Y-32948D01*
X59089Y-32948D01*
X59206Y-32924D01*
X59305Y-32858D01*
X62429Y-29734D01*
X62992Y-29734D01*
X63108Y-29711D01*
X63207Y-29644D01*
X63420Y-29432D01*
X63486Y-29333D01*
X63509Y-29216D01*
X63509Y-29209D01*
X63515Y-29206D01*
X63670Y-29052D01*
X63754Y-28850D01*
X63754Y-28631D01*
X63671Y-28429D01*
X63516Y-28274D01*
X63314Y-28190D01*
X63095Y-28190D01*
X62893Y-28273D01*
X62738Y-28428D01*
X62704Y-28510D01*
X62671Y-28429D01*
X62516Y-28274D01*
X62314Y-28190D01*
X62095Y-28190D01*
X61893Y-28273D01*
X61738Y-28428D01*
X61704Y-28510D01*
X61671Y-28429D01*
X61516Y-28274D01*
X61314Y-28190D01*
X61095Y-28190D01*
X60893Y-28273D01*
X60754Y-28412D01*
X60754Y-28390D01*
X60716Y-28298D01*
X60646Y-28228D01*
X60554Y-28190D01*
X60454Y-28190D01*
X59854Y-28190D01*
X59763Y-28228D01*
X59692Y-28298D01*
X59654Y-28390D01*
X59654Y-28489D01*
X59654Y-29089D01*
X59692Y-29181D01*
X59763Y-29252D01*
X59854Y-29290D01*
X59899Y-29290D01*
X59899Y-30318D01*
X58700Y-31518D01*
X58448Y-31518D01*
X58425Y-31462D01*
X58355Y-31392D01*
X58342Y-31386D01*
X58342Y-31382D01*
X58342Y-30513D01*
X58213Y-30513D01*
X58213Y-31279D01*
X58188Y-31279D01*
X58098Y-31279D01*
X58066Y-31311D01*
X58066Y-31354D01*
X57771Y-31354D01*
X57771Y-31311D01*
X57739Y-31279D01*
X57649Y-31279D01*
X57623Y-31279D01*
X57623Y-30513D01*
X57495Y-30513D01*
X57495Y-31382D01*
X57495Y-31386D01*
X57482Y-31392D01*
X57411Y-31462D01*
X57388Y-31518D01*
X56968Y-31518D01*
X56968Y-31646D01*
X57373Y-31646D01*
X57373Y-31653D01*
X57373Y-31751D01*
X57373Y-31763D01*
X57373Y-31850D01*
X57373Y-31948D01*
X57373Y-31960D01*
X57373Y-32047D01*
X57373Y-32144D01*
X57373Y-32157D01*
X57373Y-32243D01*
X57373Y-32341D01*
X57373Y-32353D01*
X57373Y-32440D01*
X57373Y-32538D01*
X57373Y-32550D01*
X57373Y-32637D01*
X57373Y-32735D01*
X57373Y-32747D01*
X57373Y-32834D01*
X57373Y-32932D01*
X57373Y-32944D01*
X57373Y-33031D01*
X57373Y-33129D01*
X57373Y-33141D01*
X57373Y-33229D01*
X57373Y-33247D01*
X56968Y-33247D01*
X56968Y-33376D01*
X57389Y-33376D01*
X57411Y-33431D01*
X57412Y-33431D01*
X57411Y-33432D01*
X57389Y-33486D01*
X56968Y-33486D01*
X56968Y-33615D01*
X57373Y-33615D01*
X57373Y-33623D01*
X57373Y-33720D01*
X57373Y-33733D01*
X57373Y-33820D01*
X57373Y-33917D01*
X57373Y-33930D01*
X57373Y-34017D01*
X57373Y-34113D01*
X57373Y-34127D01*
X57373Y-34213D01*
X57373Y-34310D01*
X57373Y-34323D01*
X57373Y-34410D01*
X57373Y-34507D01*
X57373Y-34520D01*
X57373Y-34607D01*
X57373Y-34703D01*
X57373Y-34717D01*
X57373Y-34803D01*
X57373Y-34900D01*
X57373Y-34913D01*
X57373Y-35000D01*
X57373Y-35097D01*
X57373Y-35110D01*
X57373Y-35197D01*
X57373Y-35293D01*
X57373Y-35307D01*
X57373Y-35393D01*
X57373Y-35490D01*
X57373Y-35503D01*
X57373Y-35590D01*
X57373Y-35687D01*
X57373Y-35700D01*
X57373Y-35787D01*
X57373Y-35884D01*
X57373Y-35897D01*
X57373Y-35984D01*
X57373Y-36081D01*
X57373Y-36094D01*
X57373Y-36181D01*
X57373Y-36291D01*
X57411Y-36383D01*
X57482Y-36453D01*
X57574Y-36491D01*
X57673Y-36491D01*
X58263Y-36491D01*
X58355Y-36453D01*
X58425Y-36383D01*
X58463Y-36291D01*
X58463Y-36191D01*
X58463Y-36094D01*
X58463Y-36081D01*
X58463Y-35994D01*
X58463Y-35897D01*
X58463Y-35884D01*
X58463Y-35797D01*
X58463Y-35700D01*
X58463Y-35687D01*
X58463Y-35600D01*
X58463Y-35503D01*
X58463Y-35490D01*
X58463Y-35403D01*
X58463Y-35307D01*
X58463Y-35293D01*
X58463Y-35207D01*
X58463Y-35110D01*
X58463Y-35097D01*
X58463Y-35010D01*
X58463Y-34913D01*
X58463Y-34900D01*
X58463Y-34813D01*
X58463Y-34717D01*
X58463Y-34703D01*
X58463Y-34617D01*
X58463Y-34520D01*
X58463Y-34507D01*
X58463Y-34420D01*
X58463Y-34327D01*
X58896Y-34327D01*
X59537Y-34968D01*
X59537Y-35020D01*
X59392Y-35020D01*
X59300Y-35058D01*
X59230Y-35128D01*
X59192Y-35220D01*
X59192Y-35290D01*
X59095Y-35354D01*
X58839Y-35611D01*
X58773Y-35710D01*
X58750Y-35826D01*
X58750Y-37472D01*
X58347Y-37874D01*
X58347Y-37874D01*
X57807Y-38414D01*
X57649Y-38414D01*
X57708Y-38273D01*
X57708Y-38104D01*
X57674Y-38023D01*
X57761Y-38023D01*
X57917Y-37958D01*
X58037Y-37839D01*
X58102Y-37683D01*
X58102Y-37514D01*
X58037Y-37357D01*
X57918Y-37238D01*
X57762Y-37173D01*
X57592Y-37173D01*
X57436Y-37237D01*
X57418Y-37255D01*
X57418Y-36995D01*
X57418Y-36995D01*
X57418Y-36650D01*
X57380Y-36558D01*
X57310Y-36488D01*
X57218Y-36450D01*
X57119Y-36450D01*
X57022Y-36450D01*
X57009Y-36450D01*
X56923Y-36450D01*
X56825Y-36450D01*
X56813Y-36450D01*
X56726Y-36450D01*
X56628Y-36450D01*
X56616Y-36450D01*
X56529Y-36450D01*
X56432Y-36450D01*
X56419Y-36450D01*
X56333Y-36450D01*
X56314Y-36450D01*
X56314Y-36045D01*
X56185Y-36045D01*
X56185Y-36466D01*
X56131Y-36488D01*
X56130Y-36489D01*
X56130Y-36488D01*
X56075Y-36466D01*
X56075Y-36045D01*
X55947Y-36045D01*
X55947Y-36450D01*
X55939Y-36450D01*
X55841Y-36450D01*
X55829Y-36450D01*
X55742Y-36450D01*
X55644Y-36450D01*
X55632Y-36450D01*
X55545Y-36450D01*
X55446Y-36450D01*
X55435Y-36450D01*
X55347Y-36450D01*
X55249Y-36450D01*
X55237Y-36450D01*
X55150Y-36450D01*
X55052Y-36450D01*
X55040Y-36450D01*
X54953Y-36450D01*
X54855Y-36450D01*
X54843Y-36450D01*
X54756Y-36450D01*
X54658Y-36450D01*
X54646Y-36450D01*
X54559Y-36450D01*
X54541Y-36450D01*
X54541Y-36045D01*
X54413Y-36045D01*
X54413Y-36465D01*
X54357Y-36488D01*
X54303Y-36466D01*
X54303Y-36045D01*
X54174Y-36045D01*
X54174Y-36450D01*
X54166Y-36450D01*
X54068Y-36450D01*
X54056Y-36450D01*
X53969Y-36450D01*
X53872Y-36450D01*
X53859Y-36450D01*
X53773Y-36450D01*
X53675Y-36450D01*
X53663Y-36450D01*
X53576Y-36450D01*
X53557Y-36450D01*
X53557Y-36045D01*
X53429Y-36045D01*
X53429Y-36466D01*
X53374Y-36488D01*
X53319Y-36465D01*
X53319Y-36045D01*
X53190Y-36045D01*
X53190Y-36450D01*
X53183Y-36450D01*
X53085Y-36450D01*
X53073Y-36450D01*
X52986Y-36450D01*
X52888Y-36450D01*
X52876Y-36450D01*
X52789Y-36450D01*
X52691Y-36450D01*
X52679Y-36450D01*
X52592Y-36450D01*
X52494Y-36450D01*
X52482Y-36450D01*
X52395Y-36450D01*
X52285Y-36450D01*
X52193Y-36488D01*
X52123Y-36558D01*
X52085Y-36650D01*
X52085Y-36750D01*
X52085Y-37340D01*
X52123Y-37432D01*
X52193Y-37502D01*
X52285Y-37540D01*
X52384Y-37540D01*
X52482Y-37540D01*
X52494Y-37540D01*
X52581Y-37540D01*
X52679Y-37540D01*
X52691Y-37540D01*
X52778Y-37540D01*
X52876Y-37540D01*
X52888Y-37540D01*
X52975Y-37540D01*
X53073Y-37540D01*
X53085Y-37540D01*
X53172Y-37540D01*
X53190Y-37540D01*
X53190Y-37618D01*
X52638Y-38170D01*
X52306Y-38170D01*
X52214Y-38208D01*
X52143Y-38278D01*
X52105Y-38370D01*
X52105Y-38414D01*
X51968Y-38414D01*
X51870Y-38414D01*
X51673Y-38414D01*
X50559Y-38414D01*
X50461Y-38317D01*
X50461Y-38317D01*
X49774Y-37629D01*
X49774Y-36802D01*
X49836Y-36953D01*
X49955Y-37072D01*
X50111Y-37137D01*
X50281Y-37137D01*
X50437Y-37073D01*
X50556Y-36953D01*
X50621Y-36797D01*
X50621Y-36719D01*
X51043Y-36297D01*
X51043Y-36298D01*
X50997Y-36367D01*
X50974Y-36484D01*
X50974Y-37176D01*
X50780Y-37370D01*
X50703Y-37370D01*
X50546Y-37434D01*
X50427Y-37554D01*
X50362Y-37710D01*
X50362Y-37879D01*
X50426Y-38035D01*
X50546Y-38155D01*
X50702Y-38220D01*
X50871Y-38220D01*
X51027Y-38155D01*
X51147Y-38036D01*
X51212Y-37880D01*
X51212Y-37801D01*
X51495Y-37518D01*
X51561Y-37419D01*
X51584Y-37303D01*
X51584Y-36610D01*
X51709Y-36485D01*
X51927Y-36485D01*
X52019Y-36447D01*
X52090Y-36377D01*
X52128Y-36285D01*
X52128Y-36185D01*
X52128Y-36089D01*
X52128Y-36075D01*
X52128Y-35989D01*
X52128Y-35892D01*
X52128Y-35879D01*
X52128Y-35792D01*
X52128Y-35695D01*
X52128Y-35682D01*
X52128Y-35595D01*
X52128Y-35499D01*
X52128Y-35485D01*
X52128Y-35399D01*
X52128Y-35302D01*
X52128Y-35289D01*
X52128Y-35202D01*
X52128Y-35105D01*
X52128Y-35092D01*
X52128Y-35005D01*
X52128Y-34908D01*
X52128Y-34895D01*
X52128Y-34808D01*
X52128Y-34711D01*
X52128Y-34698D01*
X52128Y-34611D01*
X52128Y-34513D01*
X52128Y-34501D01*
X52128Y-34414D01*
X52128Y-34395D01*
X52533Y-34395D01*
X52533Y-34267D01*
X52112Y-34267D01*
X52090Y-34212D01*
X52089Y-34212D01*
X52090Y-34211D01*
X52112Y-34157D01*
X52533Y-34157D01*
X52533Y-34028D01*
X52128Y-34028D01*
X52128Y-34020D01*
X52128Y-33922D01*
X52128Y-33910D01*
X52128Y-33823D01*
X52128Y-33725D01*
X52128Y-33713D01*
X52128Y-33626D01*
X52128Y-33529D01*
X52128Y-33516D01*
X52128Y-33430D01*
X52128Y-33332D01*
X52128Y-33320D01*
X52128Y-33233D01*
X52128Y-33135D01*
X52128Y-33123D01*
X52128Y-33036D01*
X52128Y-32939D01*
X52128Y-32926D01*
X52128Y-32840D01*
X52128Y-32742D01*
X52128Y-32730D01*
X52128Y-32643D01*
X52128Y-32545D01*
X52128Y-32533D01*
X52128Y-32446D01*
X52128Y-32349D01*
X52128Y-32336D01*
X52128Y-32250D01*
X52128Y-32152D01*
X52128Y-32140D01*
X52128Y-32053D01*
X52128Y-31955D01*
X52128Y-31943D01*
X52128Y-31856D01*
X52128Y-31758D01*
X52128Y-31746D01*
X52128Y-31659D01*
X52128Y-31561D01*
X52128Y-31549D01*
X52128Y-31462D01*
X52128Y-31352D01*
X52090Y-31260D01*
X52019Y-31190D01*
X51927Y-31152D01*
X51828Y-31152D01*
X51238Y-31152D01*
X51146Y-31190D01*
X51076Y-31260D01*
X51039Y-31348D01*
X50018Y-31348D01*
X50018Y-31046D01*
X49980Y-30954D01*
X49910Y-30884D01*
X49818Y-30846D01*
X49774Y-30846D01*
X49774Y-30235D01*
X50135Y-29832D01*
X54794Y-29832D01*
X54836Y-29874D01*
X54836Y-30105D01*
X54754Y-30105D01*
X54656Y-30105D01*
X54644Y-30105D01*
X54557Y-30105D01*
X54459Y-30105D01*
X54447Y-30105D01*
X54360Y-30105D01*
X54262Y-30105D01*
X54250Y-30105D01*
X54163Y-30105D01*
X54064Y-30105D01*
X54053Y-30105D01*
X53965Y-30105D01*
X53867Y-30105D01*
X53855Y-30105D01*
X53768Y-30105D01*
X53670Y-30105D01*
X53658Y-30105D01*
X53571Y-30105D01*
X53473Y-30105D01*
X53461Y-30105D01*
X53374Y-30105D01*
X53276Y-30105D01*
X53264Y-30105D01*
X53177Y-30105D01*
X53080Y-30105D01*
X53067Y-30105D01*
X52981Y-30105D01*
X52883Y-30105D01*
X52871Y-30105D01*
X52784Y-30105D01*
X52686Y-30105D01*
X52674Y-30105D01*
X52587Y-30105D01*
X52490Y-30105D01*
X52477Y-30105D01*
X52391Y-30105D01*
X52281Y-30105D01*
X52189Y-30143D01*
X52119Y-30213D01*
X52081Y-30305D01*
X52081Y-30404D01*
X52081Y-30994D01*
X52119Y-31086D01*
X52189Y-31157D01*
X52281Y-31195D01*
X52380Y-31195D01*
X52477Y-31195D01*
X52490Y-31195D01*
X52576Y-31195D01*
X52674Y-31195D01*
X52686Y-31195D01*
X52773Y-31195D01*
X52871Y-31195D01*
X52883Y-31195D01*
X52970Y-31195D01*
X53067Y-31195D01*
X53080Y-31195D01*
X53166Y-31195D01*
X53264Y-31195D01*
X53276Y-31195D01*
X53363Y-31195D01*
X53461Y-31195D01*
X53473Y-31195D01*
X53560Y-31195D01*
X53658Y-31195D01*
X53670Y-31195D01*
X53757Y-31195D01*
X53855Y-31195D01*
X53867Y-31195D01*
X53954Y-31195D01*
X54053Y-31195D01*
X54064Y-31195D01*
X54152Y-31195D01*
X54250Y-31195D01*
X54262Y-31195D01*
X54349Y-31195D01*
X54447Y-31195D01*
X54459Y-31195D01*
X54546Y-31195D01*
X54644Y-31195D01*
X54656Y-31195D01*
X54743Y-31195D01*
X54841Y-31195D01*
X54853Y-31195D01*
X54940Y-31195D01*
X55037Y-31195D01*
X55050Y-31195D01*
X55136Y-31195D01*
X55234Y-31195D01*
X55246Y-31195D01*
X55333Y-31195D01*
X55431Y-31195D01*
X55443Y-31195D01*
X55530Y-31195D01*
X55627Y-31195D01*
X55640Y-31195D01*
X55726Y-31195D01*
X55824Y-31195D01*
X55836Y-31195D01*
X55923Y-31195D01*
X56021Y-31195D01*
X56033Y-31195D01*
X56120Y-31195D01*
X56217Y-31195D01*
X56230Y-31195D01*
X56316Y-31195D01*
X56414Y-31195D01*
X56426Y-31195D01*
X56513Y-31195D01*
X56611Y-31195D01*
X56623Y-31195D01*
X56710Y-31195D01*
X56808Y-31195D01*
X56820Y-31195D01*
X56907Y-31195D01*
X57005Y-31195D01*
X57017Y-31195D01*
X57104Y-31195D01*
X57214Y-31195D01*
X57306Y-31157D01*
X57376Y-31086D01*
X57414Y-30994D01*
X57414Y-30895D01*
X57414Y-30305D01*
X57376Y-30213D01*
X57306Y-30143D01*
X57214Y-30105D01*
X57115Y-30105D01*
X57017Y-30105D01*
X57005Y-30105D01*
X56918Y-30105D01*
X56820Y-30105D01*
X56808Y-30105D01*
X56721Y-30105D01*
X56623Y-30105D01*
X56611Y-30105D01*
X56524Y-30105D01*
X56426Y-30105D01*
X56414Y-30105D01*
X56327Y-30105D01*
X56230Y-30105D01*
X56217Y-30105D01*
X56131Y-30105D01*
X56033Y-30105D01*
X56021Y-30105D01*
X55934Y-30105D01*
X55836Y-30105D01*
X55824Y-30105D01*
X55737Y-30105D01*
X55643Y-30105D01*
X55643Y-29130D01*
X55689Y-29084D01*
X55727Y-28993D01*
X55727Y-28893D01*
X55727Y-28093D01*
X55689Y-28001D01*
X55619Y-27931D01*
X55527Y-27893D01*
X55427Y-27893D01*
X54827Y-27893D01*
X54735Y-27931D01*
X54665Y-28001D01*
X54627Y-28093D01*
X54627Y-28193D01*
X54627Y-28993D01*
X54665Y-29084D01*
X54735Y-29155D01*
X54827Y-29193D01*
X54927Y-29193D01*
X55033Y-29193D01*
X55033Y-29244D01*
X54921Y-29222D01*
X54306Y-29222D01*
X54306Y-28968D01*
X54306Y-28917D01*
X54306Y-28775D01*
X54306Y-28311D01*
X54306Y-28168D01*
X54306Y-28117D01*
X54286Y-28070D01*
X54250Y-28034D01*
X54203Y-28014D01*
X54059Y-28014D01*
X54027Y-28046D01*
X54027Y-28343D01*
X54274Y-28343D01*
X54306Y-28311D01*
X54306Y-28775D01*
X54274Y-28743D01*
X54027Y-28743D01*
X54027Y-29039D01*
X54059Y-29072D01*
X54203Y-29072D01*
X54250Y-29052D01*
X54286Y-29016D01*
X54306Y-28968D01*
X54306Y-29222D01*
X53727Y-29222D01*
X53727Y-29039D01*
X53727Y-28743D01*
X53727Y-28343D01*
X53727Y-28046D01*
X53695Y-28014D01*
X53551Y-28014D01*
X53504Y-28034D01*
X53468Y-28070D01*
X53448Y-28117D01*
X53448Y-28168D01*
X53448Y-28311D01*
X53481Y-28343D01*
X53727Y-28343D01*
X53727Y-28743D01*
X53481Y-28743D01*
X53448Y-28775D01*
X53448Y-28917D01*
X53448Y-28968D01*
X53468Y-29016D01*
X53504Y-29052D01*
X53551Y-29072D01*
X53695Y-29072D01*
X53727Y-29039D01*
X53727Y-29222D01*
X50090Y-29222D01*
X50000Y-29222D01*
X49991Y-29224D01*
X49983Y-29222D01*
X49933Y-29235D01*
X49883Y-29245D01*
X49876Y-29250D01*
X49868Y-29252D01*
X49827Y-29283D01*
X49784Y-29311D01*
X49779Y-29318D01*
X49773Y-29323D01*
X49242Y-29914D01*
X49215Y-29958D01*
X49187Y-30001D01*
X49185Y-30009D01*
X49181Y-30016D01*
X49173Y-30067D01*
X49163Y-30118D01*
X49163Y-30846D01*
X49119Y-30846D01*
X49027Y-30884D01*
X48956Y-30954D01*
X48918Y-31046D01*
X48918Y-31145D01*
X48918Y-31945D01*
X48956Y-32037D01*
X49027Y-32108D01*
X49074Y-32127D01*
X48597Y-32604D01*
X48597Y-31921D01*
X48597Y-31870D01*
X48597Y-31728D01*
X48597Y-31263D01*
X48597Y-31121D01*
X48597Y-31070D01*
X48578Y-31023D01*
X48541Y-30986D01*
X48494Y-30967D01*
X48351Y-30967D01*
X48318Y-30999D01*
X48318Y-31296D01*
X48565Y-31296D01*
X48597Y-31263D01*
X48597Y-31728D01*
X48565Y-31696D01*
X48318Y-31696D01*
X48318Y-31992D01*
X48351Y-32024D01*
X48494Y-32024D01*
X48541Y-32005D01*
X48578Y-31968D01*
X48597Y-31921D01*
X48597Y-32604D01*
X48387Y-32814D01*
X48018Y-32814D01*
X48018Y-31992D01*
X48018Y-31696D01*
X48018Y-31296D01*
X48018Y-30999D01*
X47986Y-30967D01*
X47843Y-30967D01*
X47795Y-30986D01*
X47759Y-31023D01*
X47740Y-31070D01*
X47740Y-31121D01*
X47740Y-31263D01*
X47772Y-31296D01*
X48018Y-31296D01*
X48018Y-31696D01*
X47772Y-31696D01*
X47740Y-31728D01*
X47740Y-31870D01*
X47740Y-31921D01*
X47759Y-31968D01*
X47795Y-32005D01*
X47843Y-32024D01*
X47986Y-32024D01*
X48018Y-31992D01*
X48018Y-32814D01*
X47819Y-32814D01*
X47727Y-32852D01*
X47656Y-32922D01*
X47618Y-33014D01*
X47618Y-33114D01*
X47618Y-33914D01*
X47656Y-34006D01*
X47727Y-34076D01*
X47819Y-34114D01*
X47863Y-34114D01*
X47863Y-34133D01*
X47887Y-34249D01*
X47953Y-34348D01*
X48518Y-34914D01*
X48494Y-34904D01*
X48351Y-34904D01*
X48318Y-34936D01*
X48318Y-35233D01*
X48565Y-35233D01*
X48597Y-35200D01*
X48597Y-35058D01*
X48597Y-35007D01*
X48587Y-34983D01*
X48918Y-35314D01*
X48918Y-35882D01*
X48956Y-35974D01*
X49027Y-36045D01*
X49119Y-36083D01*
X49163Y-36083D01*
X49163Y-37756D01*
X49187Y-37873D01*
X49253Y-37972D01*
X49814Y-38533D01*
X49784Y-38563D01*
X49718Y-38662D01*
X49694Y-38779D01*
X49694Y-39862D01*
X49694Y-40944D01*
X49697Y-40955D01*
X49695Y-40966D01*
X49701Y-40988D01*
X49673Y-41056D01*
X49673Y-41225D01*
X49737Y-41382D01*
X49857Y-41501D01*
X50013Y-41566D01*
X50182Y-41566D01*
X50338Y-41502D01*
X50458Y-41382D01*
X50523Y-41226D01*
X50523Y-41057D01*
X50458Y-40901D01*
X50339Y-40781D01*
X50305Y-40767D01*
X50305Y-39862D01*
X50305Y-38994D01*
X50315Y-39001D01*
X50432Y-39025D01*
X51673Y-39025D01*
X51870Y-39025D01*
X51968Y-39025D01*
X52105Y-39025D01*
X52105Y-39069D01*
X52143Y-39161D01*
X52214Y-39232D01*
X52306Y-39270D01*
X52405Y-39270D01*
X53205Y-39270D01*
X53297Y-39232D01*
X53367Y-39161D01*
X53405Y-39069D01*
X53405Y-39025D01*
X53680Y-39025D01*
X53680Y-39069D01*
X53718Y-39161D01*
X53789Y-39232D01*
X53880Y-39270D01*
X53980Y-39270D01*
X54780Y-39270D01*
X54872Y-39232D01*
X54942Y-39161D01*
X54980Y-39069D01*
X54980Y-39025D01*
X55550Y-39025D01*
X55550Y-39069D01*
X55588Y-39161D01*
X55659Y-39232D01*
X55751Y-39270D01*
X55850Y-39270D01*
X56650Y-39270D01*
X56742Y-39232D01*
X56812Y-39161D01*
X56850Y-39069D01*
X56850Y-39025D01*
X57933Y-39025D01*
X58050Y-39001D01*
X58149Y-38935D01*
X58562Y-38522D01*
X58839Y-38798D01*
X58938Y-38864D01*
X59055Y-38887D01*
X60306Y-38887D01*
X63354Y-41935D01*
X63354Y-42013D01*
X63419Y-42169D01*
X63538Y-42289D01*
X63694Y-42354D01*
X63863Y-42354D01*
X64019Y-42289D01*
X64139Y-42170D01*
X64204Y-42014D01*
X64204Y-41844D01*
X64140Y-41688D01*
X64020Y-41569D01*
X63864Y-41504D01*
X63786Y-41504D01*
X60648Y-38366D01*
X60549Y-38300D01*
X60433Y-38277D01*
X60371Y-38277D01*
X60371Y-37196D01*
X60371Y-37052D01*
X60371Y-36688D01*
X60371Y-36544D01*
X60351Y-36497D01*
X60315Y-36461D01*
X60268Y-36441D01*
X60216Y-36441D01*
X60074Y-36441D01*
X60042Y-36473D01*
X60042Y-36720D01*
X60339Y-36720D01*
X60371Y-36688D01*
X60371Y-37052D01*
X60339Y-37020D01*
X60042Y-37020D01*
X60042Y-37267D01*
X60074Y-37299D01*
X60216Y-37299D01*
X60268Y-37299D01*
X60315Y-37279D01*
X60351Y-37243D01*
X60371Y-37196D01*
X60371Y-38277D01*
X59181Y-38277D01*
X58994Y-38090D01*
X59270Y-37814D01*
X59313Y-37749D01*
X59313Y-37820D01*
X59442Y-37820D01*
X59442Y-37299D01*
X59468Y-37299D01*
X59610Y-37299D01*
X59642Y-37267D01*
X59642Y-37020D01*
X59442Y-37020D01*
X59442Y-36720D01*
X59642Y-36720D01*
X59642Y-36473D01*
X59610Y-36441D01*
X59468Y-36441D01*
X59442Y-36441D01*
X59442Y-36120D01*
X59492Y-36120D01*
X60292Y-36120D01*
X60384Y-36082D01*
X60454Y-36012D01*
X60492Y-35920D01*
X60492Y-35820D01*
X60492Y-35220D01*
X60454Y-35128D01*
X60384Y-35058D01*
X60292Y-35020D01*
X60192Y-35020D01*
X60147Y-35020D01*
X60147Y-34842D01*
X60124Y-34725D01*
X60058Y-34626D01*
X59562Y-34130D01*
X60530Y-34130D01*
X61934Y-35535D01*
X61934Y-36919D01*
X61972Y-37011D01*
X62043Y-37081D01*
X62135Y-37119D01*
X62234Y-37119D01*
X63061Y-37119D01*
X63153Y-37081D01*
X63223Y-37011D01*
X63261Y-36919D01*
X63261Y-36820D01*
X63261Y-36131D01*
X64154Y-36131D01*
X64154Y-36276D01*
X64192Y-36368D01*
X64262Y-36438D01*
X64354Y-36476D01*
X64454Y-36476D01*
X65054Y-36476D01*
X65145Y-36438D01*
X65216Y-36368D01*
X65254Y-36276D01*
X65254Y-41371D01*
X65201Y-41371D01*
X65109Y-41409D01*
X65039Y-41479D01*
X65001Y-41571D01*
X65001Y-41670D01*
X65001Y-42270D01*
X65039Y-42362D01*
X65109Y-42433D01*
X65201Y-42471D01*
X65300Y-42471D01*
X65900Y-42471D01*
X65992Y-42433D01*
X66063Y-42362D01*
X66101Y-42270D01*
X66101Y-46964D01*
X65985Y-46964D01*
X65985Y-42871D01*
X65971Y-42801D01*
X65923Y-42761D01*
X65763Y-42921D01*
X65923Y-43081D01*
X65971Y-43041D01*
X65985Y-42871D01*
X65985Y-46964D01*
X65711Y-46964D01*
X65711Y-43293D01*
X65711Y-42549D01*
X65671Y-42500D01*
X65501Y-42486D01*
X65431Y-42500D01*
X65391Y-42549D01*
X65551Y-42709D01*
X65711Y-42549D01*
X65711Y-43293D01*
X65551Y-43133D01*
X65391Y-43293D01*
X65431Y-43341D01*
X65601Y-43355D01*
X65671Y-43341D01*
X65711Y-43293D01*
X65711Y-46964D01*
X65339Y-46964D01*
X65339Y-42921D01*
X65179Y-42761D01*
X65130Y-42801D01*
X65116Y-42971D01*
X65130Y-43041D01*
X65179Y-43081D01*
X65339Y-42921D01*
X65339Y-46964D01*
X64073Y-46964D01*
X64073Y-46150D01*
X63990Y-45948D01*
X63835Y-45793D01*
X63633Y-45709D01*
X63414Y-45709D01*
X63212Y-45793D01*
X63057Y-45947D01*
X63023Y-46029D01*
X62990Y-45948D01*
X62835Y-45793D01*
X62633Y-45709D01*
X62414Y-45709D01*
X62212Y-45793D01*
X62057Y-45947D01*
X62023Y-46029D01*
X61990Y-45948D01*
X61835Y-45793D01*
X61633Y-45709D01*
X61414Y-45709D01*
X61212Y-45793D01*
X61057Y-45947D01*
X61023Y-46029D01*
X60990Y-45948D01*
X60835Y-45793D01*
X60633Y-45709D01*
X60414Y-45709D01*
X60212Y-45793D01*
X60057Y-45947D01*
X60023Y-46029D01*
X59990Y-45948D01*
X59835Y-45793D01*
X59633Y-45709D01*
X59414Y-45709D01*
X59212Y-45793D01*
X59057Y-45947D01*
X58973Y-46149D01*
X58973Y-46368D01*
X59057Y-46570D01*
X59211Y-46725D01*
X59413Y-46809D01*
X59632Y-46809D01*
X59834Y-46726D01*
X59989Y-46571D01*
X60023Y-46489D01*
X60057Y-46570D01*
X60211Y-46725D01*
X60413Y-46809D01*
X60632Y-46809D01*
X60834Y-46726D01*
X60989Y-46571D01*
X61023Y-46489D01*
X61057Y-46570D01*
X61211Y-46725D01*
X61413Y-46809D01*
X61632Y-46809D01*
X61834Y-46726D01*
X61989Y-46571D01*
X62023Y-46489D01*
X62057Y-46570D01*
X62211Y-46725D01*
X62413Y-46809D01*
X62632Y-46809D01*
X62834Y-46726D01*
X62989Y-46571D01*
X63023Y-46489D01*
X63057Y-46570D01*
X63211Y-46725D01*
X63413Y-46809D01*
X63632Y-46809D01*
X63834Y-46726D01*
X63989Y-46571D01*
X64073Y-46369D01*
X64073Y-46150D01*
X64073Y-46964D01*
X58952Y-46964D01*
X58952Y-46585D01*
X58952Y-46534D01*
X58952Y-46442D01*
X58952Y-46077D01*
X58952Y-45985D01*
X58952Y-45934D01*
X58932Y-45886D01*
X58896Y-45850D01*
X58849Y-45831D01*
X58705Y-45831D01*
X58673Y-45863D01*
X58673Y-46109D01*
X58920Y-46109D01*
X58952Y-46077D01*
X58952Y-46442D01*
X58920Y-46409D01*
X58673Y-46409D01*
X58673Y-46656D01*
X58705Y-46688D01*
X58849Y-46688D01*
X58896Y-46668D01*
X58932Y-46632D01*
X58952Y-46585D01*
X58952Y-46964D01*
X58373Y-46964D01*
X58373Y-46656D01*
X58373Y-46409D01*
X58373Y-46109D01*
X58373Y-45863D01*
X58341Y-45831D01*
X58198Y-45831D01*
X58150Y-45850D01*
X58114Y-45886D01*
X58094Y-45934D01*
X58094Y-45985D01*
X58094Y-46077D01*
X58127Y-46109D01*
X58373Y-46109D01*
X58373Y-46409D01*
X58127Y-46409D01*
X58094Y-46442D01*
X58094Y-46534D01*
X58094Y-46585D01*
X58114Y-46632D01*
X58150Y-46668D01*
X58198Y-46688D01*
X58341Y-46688D01*
X58373Y-46656D01*
X58373Y-46964D01*
X56729Y-46964D01*
X56729Y-40345D01*
X56729Y-40202D01*
X56729Y-39837D01*
X56729Y-39694D01*
X56709Y-39647D01*
X56673Y-39610D01*
X56626Y-39591D01*
X56575Y-39591D01*
X56432Y-39591D01*
X56400Y-39623D01*
X56400Y-39870D01*
X56697Y-39870D01*
X56729Y-39837D01*
X56729Y-40202D01*
X56697Y-40170D01*
X56400Y-40170D01*
X56400Y-40416D01*
X56432Y-40448D01*
X56575Y-40448D01*
X56626Y-40448D01*
X56673Y-40429D01*
X56709Y-40393D01*
X56729Y-40345D01*
X56729Y-46964D01*
X56000Y-46964D01*
X56000Y-40416D01*
X56000Y-40170D01*
X56000Y-39870D01*
X56000Y-39623D01*
X55968Y-39591D01*
X55826Y-39591D01*
X55775Y-39591D01*
X55727Y-39610D01*
X55691Y-39647D01*
X55672Y-39694D01*
X55672Y-39837D01*
X55704Y-39870D01*
X56000Y-39870D01*
X56000Y-40170D01*
X55704Y-40170D01*
X55672Y-40202D01*
X55672Y-40345D01*
X55691Y-40393D01*
X55727Y-40429D01*
X55775Y-40448D01*
X55826Y-40448D01*
X55968Y-40448D01*
X56000Y-40416D01*
X56000Y-46964D01*
X54917Y-46964D01*
X54917Y-44294D01*
X54859Y-44155D01*
X54859Y-40345D01*
X54859Y-40202D01*
X54859Y-39837D01*
X54859Y-39694D01*
X54839Y-39647D01*
X54803Y-39610D01*
X54756Y-39591D01*
X54705Y-39591D01*
X54562Y-39591D01*
X54530Y-39623D01*
X54530Y-39870D01*
X54827Y-39870D01*
X54859Y-39837D01*
X54859Y-40202D01*
X54827Y-40170D01*
X54530Y-40170D01*
X54530Y-40416D01*
X54562Y-40448D01*
X54705Y-40448D01*
X54756Y-40448D01*
X54803Y-40429D01*
X54839Y-40393D01*
X54859Y-40345D01*
X54859Y-44155D01*
X54789Y-43985D01*
X54553Y-43749D01*
X54244Y-43621D01*
X54130Y-43620D01*
X54130Y-40416D01*
X54130Y-40170D01*
X54130Y-39870D01*
X54130Y-39623D01*
X54098Y-39591D01*
X53956Y-39591D01*
X53905Y-39591D01*
X53857Y-39610D01*
X53821Y-39647D01*
X53801Y-39694D01*
X53801Y-39837D01*
X53834Y-39870D01*
X54130Y-39870D01*
X54130Y-40170D01*
X53834Y-40170D01*
X53801Y-40202D01*
X53801Y-40345D01*
X53821Y-40393D01*
X53857Y-40429D01*
X53905Y-40448D01*
X53956Y-40448D01*
X54098Y-40448D01*
X54130Y-40416D01*
X54130Y-43620D01*
X53909Y-43620D01*
X53600Y-43748D01*
X53364Y-43984D01*
X53284Y-44176D01*
X53284Y-40345D01*
X53284Y-40202D01*
X53284Y-39837D01*
X53284Y-39694D01*
X53265Y-39647D01*
X53228Y-39610D01*
X53181Y-39591D01*
X53130Y-39591D01*
X52988Y-39591D01*
X52955Y-39623D01*
X52955Y-39870D01*
X53252Y-39870D01*
X53284Y-39837D01*
X53284Y-40202D01*
X53252Y-40170D01*
X52955Y-40170D01*
X52955Y-40416D01*
X52988Y-40448D01*
X53130Y-40448D01*
X53181Y-40448D01*
X53228Y-40429D01*
X53265Y-40393D01*
X53284Y-40345D01*
X53284Y-44176D01*
X53236Y-44293D01*
X53235Y-44627D01*
X53363Y-44936D01*
X53599Y-45173D01*
X53908Y-45301D01*
X54242Y-45302D01*
X54551Y-45174D01*
X54788Y-44938D01*
X54916Y-44629D01*
X54917Y-44294D01*
X54917Y-46964D01*
X53226Y-46964D01*
X53226Y-42552D01*
X53142Y-42350D01*
X52988Y-42195D01*
X52786Y-42111D01*
X52567Y-42111D01*
X52555Y-42116D01*
X52555Y-40416D01*
X52555Y-40170D01*
X52555Y-39870D01*
X52555Y-39623D01*
X52523Y-39591D01*
X52381Y-39591D01*
X52330Y-39591D01*
X52282Y-39610D01*
X52246Y-39647D01*
X52227Y-39694D01*
X52227Y-39837D01*
X52259Y-39870D01*
X52555Y-39870D01*
X52555Y-40170D01*
X52259Y-40170D01*
X52227Y-40202D01*
X52227Y-40345D01*
X52246Y-40393D01*
X52282Y-40429D01*
X52330Y-40448D01*
X52381Y-40448D01*
X52523Y-40448D01*
X52555Y-40416D01*
X52555Y-42116D01*
X52365Y-42194D01*
X52210Y-42349D01*
X52176Y-42431D01*
X52142Y-42350D01*
X51988Y-42195D01*
X51786Y-42111D01*
X51567Y-42111D01*
X51365Y-42194D01*
X51210Y-42349D01*
X51176Y-42431D01*
X51142Y-42350D01*
X50988Y-42195D01*
X50786Y-42111D01*
X50567Y-42111D01*
X50365Y-42194D01*
X50210Y-42349D01*
X50126Y-42551D01*
X50126Y-42770D01*
X50209Y-42972D01*
X50364Y-43127D01*
X50566Y-43211D01*
X50785Y-43211D01*
X50987Y-43127D01*
X51142Y-42973D01*
X51176Y-42891D01*
X51209Y-42972D01*
X51364Y-43127D01*
X51566Y-43211D01*
X51785Y-43211D01*
X51987Y-43127D01*
X52142Y-42973D01*
X52176Y-42891D01*
X52209Y-42972D01*
X52364Y-43127D01*
X52566Y-43211D01*
X52785Y-43211D01*
X52987Y-43127D01*
X53142Y-42973D01*
X53226Y-42771D01*
X53226Y-42552D01*
X53226Y-46964D01*
X52726Y-46964D01*
X52726Y-43552D01*
X52642Y-43350D01*
X52488Y-43195D01*
X52286Y-43111D01*
X52067Y-43111D01*
X51865Y-43194D01*
X51710Y-43349D01*
X51626Y-43551D01*
X51626Y-43770D01*
X51709Y-43972D01*
X51864Y-44127D01*
X52066Y-44211D01*
X52285Y-44211D01*
X52487Y-44127D01*
X52642Y-43973D01*
X52726Y-43771D01*
X52726Y-43552D01*
X52726Y-46964D01*
X51610Y-46964D01*
X51610Y-43611D01*
X51596Y-43541D01*
X51548Y-43501D01*
X51388Y-43661D01*
X51548Y-43821D01*
X51596Y-43781D01*
X51610Y-43611D01*
X51610Y-46964D01*
X51336Y-46964D01*
X51336Y-44033D01*
X51336Y-43289D01*
X51296Y-43241D01*
X51126Y-43227D01*
X51056Y-43241D01*
X51016Y-43289D01*
X51176Y-43449D01*
X51336Y-43289D01*
X51336Y-44033D01*
X51176Y-43873D01*
X51016Y-44033D01*
X51056Y-44081D01*
X51226Y-44095D01*
X51296Y-44081D01*
X51336Y-44033D01*
X51336Y-46964D01*
X50964Y-46964D01*
X50964Y-43661D01*
X50804Y-43501D01*
X50756Y-43541D01*
X50742Y-43711D01*
X50756Y-43781D01*
X50804Y-43821D01*
X50964Y-43661D01*
X50964Y-46964D01*
X50726Y-46964D01*
X50726Y-43552D01*
X50642Y-43350D01*
X50488Y-43195D01*
X50286Y-43111D01*
X50067Y-43111D01*
X49865Y-43194D01*
X49710Y-43349D01*
X49626Y-43551D01*
X49626Y-43770D01*
X49709Y-43972D01*
X49864Y-44127D01*
X50066Y-44211D01*
X50285Y-44211D01*
X50487Y-44127D01*
X50642Y-43973D01*
X50726Y-43771D01*
X50726Y-43552D01*
X50726Y-46964D01*
X49617Y-46964D01*
X49617Y-44294D01*
X49489Y-43985D01*
X49253Y-43749D01*
X48944Y-43621D01*
X48609Y-43620D01*
X48597Y-43625D01*
X48597Y-35858D01*
X48597Y-35807D01*
X48597Y-35665D01*
X48565Y-35633D01*
X48318Y-35633D01*
X48318Y-35929D01*
X48351Y-35961D01*
X48494Y-35961D01*
X48541Y-35942D01*
X48578Y-35905D01*
X48597Y-35858D01*
X48597Y-43625D01*
X48300Y-43748D01*
X48064Y-43984D01*
X48018Y-44093D01*
X48018Y-35929D01*
X48018Y-35633D01*
X48018Y-35233D01*
X48018Y-34936D01*
X47986Y-34904D01*
X47843Y-34904D01*
X47795Y-34923D01*
X47759Y-34960D01*
X47740Y-35007D01*
X47740Y-35058D01*
X47740Y-35200D01*
X47772Y-35233D01*
X48018Y-35233D01*
X48018Y-35633D01*
X47772Y-35633D01*
X47740Y-35665D01*
X47740Y-35807D01*
X47740Y-35858D01*
X47759Y-35905D01*
X47795Y-35942D01*
X47843Y-35961D01*
X47986Y-35961D01*
X48018Y-35929D01*
X48018Y-44093D01*
X47936Y-44293D01*
X47935Y-44627D01*
X48063Y-44936D01*
X48299Y-45173D01*
X48608Y-45301D01*
X48942Y-45302D01*
X49251Y-45174D01*
X49488Y-44938D01*
X49616Y-44629D01*
X49617Y-44294D01*
X49617Y-46964D01*
X47523Y-46964D01*
X47523Y-27838D01*
X66649Y-27838D01*
X66649Y-46964D01*
X66649Y-46964D01*
G37*
G54D21*
X66649Y-46964D02*
X66433Y-46964D01*
X66433Y-36252D01*
X66433Y-36201D01*
X66433Y-36058D01*
X66433Y-35594D01*
X66433Y-35452D01*
X66433Y-35401D01*
X66421Y-35372D01*
X66421Y-32366D01*
X66421Y-32315D01*
X66421Y-32173D01*
X66421Y-31708D01*
X66421Y-31566D01*
X66421Y-31515D01*
X66401Y-31468D01*
X66365Y-31431D01*
X66318Y-31412D01*
X66174Y-31412D01*
X66142Y-31444D01*
X66142Y-31740D01*
X66389Y-31740D01*
X66421Y-31708D01*
X66421Y-32173D01*
X66389Y-32140D01*
X66142Y-32140D01*
X66142Y-32437D01*
X66174Y-32469D01*
X66318Y-32469D01*
X66365Y-32450D01*
X66401Y-32413D01*
X66421Y-32366D01*
X66421Y-35372D01*
X66413Y-35353D01*
X66377Y-35317D01*
X66329Y-35298D01*
X66186Y-35298D01*
X66154Y-35330D01*
X66154Y-35626D01*
X66400Y-35626D01*
X66433Y-35594D01*
X66433Y-36058D01*
X66400Y-36026D01*
X66154Y-36026D01*
X66154Y-36323D01*
X66186Y-36355D01*
X66329Y-36355D01*
X66377Y-36335D01*
X66413Y-36299D01*
X66433Y-36252D01*
X66433Y-46964D01*
X66101Y-46964D01*
X66101Y-42270D01*
X66101Y-42171D01*
X66101Y-41571D01*
X66063Y-41479D01*
X65992Y-41409D01*
X65900Y-41371D01*
X65854Y-41371D01*
X65854Y-36323D01*
X65854Y-36026D01*
X65854Y-35626D01*
X65854Y-35330D01*
X65842Y-35318D01*
X65842Y-32437D01*
X65842Y-32140D01*
X65842Y-31740D01*
X65842Y-31444D01*
X65810Y-31412D01*
X65666Y-31412D01*
X65619Y-31431D01*
X65583Y-31468D01*
X65563Y-31515D01*
X65563Y-31566D01*
X65563Y-31708D01*
X65595Y-31740D01*
X65842Y-31740D01*
X65842Y-32140D01*
X65595Y-32140D01*
X65563Y-32173D01*
X65563Y-32315D01*
X65563Y-32366D01*
X65583Y-32413D01*
X65619Y-32450D01*
X65666Y-32469D01*
X65810Y-32469D01*
X65842Y-32437D01*
X65842Y-35318D01*
X65822Y-35298D01*
X65678Y-35298D01*
X65631Y-35317D01*
X65595Y-35353D01*
X65575Y-35401D01*
X65575Y-35452D01*
X65575Y-35594D01*
X65607Y-35626D01*
X65854Y-35626D01*
X65854Y-36026D01*
X65607Y-36026D01*
X65575Y-36058D01*
X65575Y-36201D01*
X65575Y-36252D01*
X65595Y-36299D01*
X65631Y-36335D01*
X65678Y-36355D01*
X65822Y-36355D01*
X65854Y-36323D01*
X65854Y-41371D01*
X65801Y-41371D01*
X65254Y-41371D01*
X65254Y-36276D01*
X65254Y-36177D01*
X65254Y-35377D01*
X65216Y-35285D01*
X65145Y-35214D01*
X65054Y-35176D01*
X64954Y-35176D01*
X64354Y-35176D01*
X64262Y-35214D01*
X64192Y-35285D01*
X64154Y-35377D01*
X64154Y-35476D01*
X64154Y-35521D01*
X63261Y-35521D01*
X63261Y-34615D01*
X63223Y-34523D01*
X63153Y-34452D01*
X63061Y-34414D01*
X62962Y-34414D01*
X62135Y-34414D01*
X62043Y-34452D01*
X61972Y-34523D01*
X61934Y-34615D01*
X61934Y-34672D01*
X61118Y-33855D01*
X61134Y-33844D01*
X61934Y-33044D01*
X61934Y-33101D01*
X61972Y-33193D01*
X62043Y-33263D01*
X62135Y-33301D01*
X62234Y-33301D01*
X63061Y-33301D01*
X63153Y-33263D01*
X63223Y-33193D01*
X63261Y-33101D01*
X63261Y-33002D01*
X63261Y-32246D01*
X64142Y-32246D01*
X64142Y-32390D01*
X64180Y-32482D01*
X64250Y-32552D01*
X64342Y-32590D01*
X64442Y-32590D01*
X65042Y-32590D01*
X65134Y-32552D01*
X65204Y-32482D01*
X65242Y-32390D01*
X65242Y-32291D01*
X65242Y-31491D01*
X65204Y-31399D01*
X65134Y-31329D01*
X65042Y-31290D01*
X64942Y-31290D01*
X64638Y-31290D01*
X64638Y-28690D01*
X64625Y-28620D01*
X64576Y-28580D01*
X64416Y-28740D01*
X64576Y-28900D01*
X64625Y-28860D01*
X64638Y-28690D01*
X64638Y-31290D01*
X64364Y-31290D01*
X64364Y-29112D01*
X64364Y-28368D01*
X64324Y-28319D01*
X64154Y-28305D01*
X64084Y-28319D01*
X64044Y-28368D01*
X64204Y-28528D01*
X64364Y-28368D01*
X64364Y-29112D01*
X64204Y-28952D01*
X64044Y-29112D01*
X64084Y-29160D01*
X64254Y-29174D01*
X64324Y-29160D01*
X64364Y-29112D01*
X64364Y-31290D01*
X64342Y-31290D01*
X64250Y-31329D01*
X64180Y-31399D01*
X64142Y-31491D01*
X64142Y-31590D01*
X64142Y-31635D01*
X63992Y-31635D01*
X63992Y-28740D01*
X63832Y-28580D01*
X63784Y-28620D01*
X63770Y-28790D01*
X63784Y-28860D01*
X63832Y-28900D01*
X63992Y-28740D01*
X63992Y-31635D01*
X63261Y-31635D01*
X63261Y-30797D01*
X63223Y-30705D01*
X63153Y-30634D01*
X63061Y-30596D01*
X62962Y-30596D01*
X62135Y-30596D01*
X62043Y-30634D01*
X61972Y-30705D01*
X61934Y-30797D01*
X61934Y-30896D01*
X61934Y-32181D01*
X60792Y-33323D01*
X58868Y-33323D01*
X58868Y-33247D01*
X58463Y-33247D01*
X58463Y-33239D01*
X58463Y-33141D01*
X58463Y-33129D01*
X58463Y-33042D01*
X58463Y-32948D01*
X59089Y-32948D01*
X59206Y-32924D01*
X59305Y-32858D01*
X62429Y-29734D01*
X62992Y-29734D01*
X63108Y-29711D01*
X63207Y-29644D01*
X63420Y-29432D01*
X63486Y-29333D01*
X63509Y-29216D01*
X63509Y-29209D01*
X63515Y-29206D01*
X63670Y-29052D01*
X63754Y-28850D01*
X63754Y-28631D01*
X63671Y-28429D01*
X63516Y-28274D01*
X63314Y-28190D01*
X63095Y-28190D01*
X62893Y-28273D01*
X62738Y-28428D01*
X62704Y-28510D01*
X62671Y-28429D01*
X62516Y-28274D01*
X62314Y-28190D01*
X62095Y-28190D01*
X61893Y-28273D01*
X61738Y-28428D01*
X61704Y-28510D01*
X61671Y-28429D01*
X61516Y-28274D01*
X61314Y-28190D01*
X61095Y-28190D01*
X60893Y-28273D01*
X60754Y-28412D01*
X60754Y-28390D01*
X60716Y-28298D01*
X60646Y-28228D01*
X60554Y-28190D01*
X60454Y-28190D01*
X59854Y-28190D01*
X59763Y-28228D01*
X59692Y-28298D01*
X59654Y-28390D01*
X59654Y-28489D01*
X59654Y-29089D01*
X59692Y-29181D01*
X59763Y-29252D01*
X59854Y-29290D01*
X59899Y-29290D01*
X59899Y-30318D01*
X58700Y-31518D01*
X58448Y-31518D01*
X58425Y-31462D01*
X58355Y-31392D01*
X58342Y-31386D01*
X58342Y-31382D01*
X58342Y-30513D01*
X58213Y-30513D01*
X58213Y-31279D01*
X58188Y-31279D01*
X58098Y-31279D01*
X58066Y-31311D01*
X58066Y-31354D01*
X57771Y-31354D01*
X57771Y-31311D01*
X57739Y-31279D01*
X57649Y-31279D01*
X57623Y-31279D01*
X57623Y-30513D01*
X57495Y-30513D01*
X57495Y-31382D01*
X57495Y-31386D01*
X57482Y-31392D01*
X57411Y-31462D01*
X57388Y-31518D01*
X56968Y-31518D01*
X56968Y-31646D01*
X57373Y-31646D01*
X57373Y-31653D01*
X57373Y-31751D01*
X57373Y-31763D01*
X57373Y-31850D01*
X57373Y-31948D01*
X57373Y-31960D01*
X57373Y-32047D01*
X57373Y-32144D01*
X57373Y-32157D01*
X57373Y-32243D01*
X57373Y-32341D01*
X57373Y-32353D01*
X57373Y-32440D01*
X57373Y-32538D01*
X57373Y-32550D01*
X57373Y-32637D01*
X57373Y-32735D01*
X57373Y-32747D01*
X57373Y-32834D01*
X57373Y-32932D01*
X57373Y-32944D01*
X57373Y-33031D01*
X57373Y-33129D01*
X57373Y-33141D01*
X57373Y-33229D01*
X57373Y-33247D01*
X56968Y-33247D01*
X56968Y-33376D01*
X57389Y-33376D01*
X57411Y-33431D01*
X57412Y-33431D01*
X57411Y-33432D01*
X57389Y-33486D01*
X56968Y-33486D01*
X56968Y-33615D01*
X57373Y-33615D01*
X57373Y-33623D01*
X57373Y-33720D01*
X57373Y-33733D01*
X57373Y-33820D01*
X57373Y-33917D01*
X57373Y-33930D01*
X57373Y-34017D01*
X57373Y-34113D01*
X57373Y-34127D01*
X57373Y-34213D01*
X57373Y-34310D01*
X57373Y-34323D01*
X57373Y-34410D01*
X57373Y-34507D01*
X57373Y-34520D01*
X57373Y-34607D01*
X57373Y-34703D01*
X57373Y-34717D01*
X57373Y-34803D01*
X57373Y-34900D01*
X57373Y-34913D01*
X57373Y-35000D01*
X57373Y-35097D01*
X57373Y-35110D01*
X57373Y-35197D01*
X57373Y-35293D01*
X57373Y-35307D01*
X57373Y-35393D01*
X57373Y-35490D01*
X57373Y-35503D01*
X57373Y-35590D01*
X57373Y-35687D01*
X57373Y-35700D01*
X57373Y-35787D01*
X57373Y-35884D01*
X57373Y-35897D01*
X57373Y-35984D01*
X57373Y-36081D01*
X57373Y-36094D01*
X57373Y-36181D01*
X57373Y-36291D01*
X57411Y-36383D01*
X57482Y-36453D01*
X57574Y-36491D01*
X57673Y-36491D01*
X58263Y-36491D01*
X58355Y-36453D01*
X58425Y-36383D01*
X58463Y-36291D01*
X58463Y-36191D01*
X58463Y-36094D01*
X58463Y-36081D01*
X58463Y-35994D01*
X58463Y-35897D01*
X58463Y-35884D01*
X58463Y-35797D01*
X58463Y-35700D01*
X58463Y-35687D01*
X58463Y-35600D01*
X58463Y-35503D01*
X58463Y-35490D01*
X58463Y-35403D01*
X58463Y-35307D01*
X58463Y-35293D01*
X58463Y-35207D01*
X58463Y-35110D01*
X58463Y-35097D01*
X58463Y-35010D01*
X58463Y-34913D01*
X58463Y-34900D01*
X58463Y-34813D01*
X58463Y-34717D01*
X58463Y-34703D01*
X58463Y-34617D01*
X58463Y-34520D01*
X58463Y-34507D01*
X58463Y-34420D01*
X58463Y-34327D01*
X58896Y-34327D01*
X59537Y-34968D01*
X59537Y-35020D01*
X59392Y-35020D01*
X59300Y-35058D01*
X59230Y-35128D01*
X59192Y-35220D01*
X59192Y-35290D01*
X59095Y-35354D01*
X58839Y-35611D01*
X58773Y-35710D01*
X58750Y-35826D01*
X58750Y-37472D01*
X58347Y-37874D01*
X58347Y-37874D01*
X57807Y-38414D01*
X57649Y-38414D01*
X57708Y-38273D01*
X57708Y-38104D01*
X57674Y-38023D01*
X57761Y-38023D01*
X57917Y-37958D01*
X58037Y-37839D01*
X58102Y-37683D01*
X58102Y-37514D01*
X58037Y-37357D01*
X57918Y-37238D01*
X57762Y-37173D01*
X57592Y-37173D01*
X57436Y-37237D01*
X57418Y-37255D01*
X57418Y-36995D01*
X57418Y-36995D01*
X57418Y-36650D01*
X57380Y-36558D01*
X57310Y-36488D01*
X57218Y-36450D01*
X57119Y-36450D01*
X57022Y-36450D01*
X57009Y-36450D01*
X56923Y-36450D01*
X56825Y-36450D01*
X56813Y-36450D01*
X56726Y-36450D01*
X56628Y-36450D01*
X56616Y-36450D01*
X56529Y-36450D01*
X56432Y-36450D01*
X56419Y-36450D01*
X56333Y-36450D01*
X56314Y-36450D01*
X56314Y-36045D01*
X56185Y-36045D01*
X56185Y-36466D01*
X56131Y-36488D01*
X56130Y-36489D01*
X56130Y-36488D01*
X56075Y-36466D01*
X56075Y-36045D01*
X55947Y-36045D01*
X55947Y-36450D01*
X55939Y-36450D01*
X55841Y-36450D01*
X55829Y-36450D01*
X55742Y-36450D01*
X55644Y-36450D01*
X55632Y-36450D01*
X55545Y-36450D01*
X55446Y-36450D01*
X55435Y-36450D01*
X55347Y-36450D01*
X55249Y-36450D01*
X55237Y-36450D01*
X55150Y-36450D01*
X55052Y-36450D01*
X55040Y-36450D01*
X54953Y-36450D01*
X54855Y-36450D01*
X54843Y-36450D01*
X54756Y-36450D01*
X54658Y-36450D01*
X54646Y-36450D01*
X54559Y-36450D01*
X54541Y-36450D01*
X54541Y-36045D01*
X54413Y-36045D01*
X54413Y-36465D01*
X54357Y-36488D01*
X54303Y-36466D01*
X54303Y-36045D01*
X54174Y-36045D01*
X54174Y-36450D01*
X54166Y-36450D01*
X54068Y-36450D01*
X54056Y-36450D01*
X53969Y-36450D01*
X53872Y-36450D01*
X53859Y-36450D01*
X53773Y-36450D01*
X53675Y-36450D01*
X53663Y-36450D01*
X53576Y-36450D01*
X53557Y-36450D01*
X53557Y-36045D01*
X53429Y-36045D01*
X53429Y-36466D01*
X53374Y-36488D01*
X53319Y-36465D01*
X53319Y-36045D01*
X53190Y-36045D01*
X53190Y-36450D01*
X53183Y-36450D01*
X53085Y-36450D01*
X53073Y-36450D01*
X52986Y-36450D01*
X52888Y-36450D01*
X52876Y-36450D01*
X52789Y-36450D01*
X52691Y-36450D01*
X52679Y-36450D01*
X52592Y-36450D01*
X52494Y-36450D01*
X52482Y-36450D01*
X52395Y-36450D01*
X52285Y-36450D01*
X52193Y-36488D01*
X52123Y-36558D01*
X52085Y-36650D01*
X52085Y-36750D01*
X52085Y-37340D01*
X52123Y-37432D01*
X52193Y-37502D01*
X52285Y-37540D01*
X52384Y-37540D01*
X52482Y-37540D01*
X52494Y-37540D01*
X52581Y-37540D01*
X52679Y-37540D01*
X52691Y-37540D01*
X52778Y-37540D01*
X52876Y-37540D01*
X52888Y-37540D01*
X52975Y-37540D01*
X53073Y-37540D01*
X53085Y-37540D01*
X53172Y-37540D01*
X53190Y-37540D01*
X53190Y-37618D01*
X52638Y-38170D01*
X52306Y-38170D01*
X52214Y-38208D01*
X52143Y-38278D01*
X52105Y-38370D01*
X52105Y-38414D01*
X51968Y-38414D01*
X51870Y-38414D01*
X51673Y-38414D01*
X50559Y-38414D01*
X50461Y-38317D01*
X50461Y-38317D01*
X49774Y-37629D01*
X49774Y-36802D01*
X49836Y-36953D01*
X49955Y-37072D01*
X50111Y-37137D01*
X50281Y-37137D01*
X50437Y-37073D01*
X50556Y-36953D01*
X50621Y-36797D01*
X50621Y-36719D01*
X51043Y-36297D01*
X51043Y-36298D01*
X50997Y-36367D01*
X50974Y-36484D01*
X50974Y-37176D01*
X50780Y-37370D01*
X50703Y-37370D01*
X50546Y-37434D01*
X50427Y-37554D01*
X50362Y-37710D01*
X50362Y-37879D01*
X50426Y-38035D01*
X50546Y-38155D01*
X50702Y-38220D01*
X50871Y-38220D01*
X51027Y-38155D01*
X51147Y-38036D01*
X51212Y-37880D01*
X51212Y-37801D01*
X51495Y-37518D01*
X51561Y-37419D01*
X51584Y-37303D01*
X51584Y-36610D01*
X51709Y-36485D01*
X51927Y-36485D01*
X52019Y-36447D01*
X52090Y-36377D01*
X52128Y-36285D01*
X52128Y-36185D01*
X52128Y-36089D01*
X52128Y-36075D01*
X52128Y-35989D01*
X52128Y-35892D01*
X52128Y-35879D01*
X52128Y-35792D01*
X52128Y-35695D01*
X52128Y-35682D01*
X52128Y-35595D01*
X52128Y-35499D01*
X52128Y-35485D01*
X52128Y-35399D01*
X52128Y-35302D01*
X52128Y-35289D01*
X52128Y-35202D01*
X52128Y-35105D01*
X52128Y-35092D01*
X52128Y-35005D01*
X52128Y-34908D01*
X52128Y-34895D01*
X52128Y-34808D01*
X52128Y-34711D01*
X52128Y-34698D01*
X52128Y-34611D01*
X52128Y-34513D01*
X52128Y-34501D01*
X52128Y-34414D01*
X52128Y-34395D01*
X52533Y-34395D01*
X52533Y-34267D01*
X52112Y-34267D01*
X52090Y-34212D01*
X52089Y-34212D01*
X52090Y-34211D01*
X52112Y-34157D01*
X52533Y-34157D01*
X52533Y-34028D01*
X52128Y-34028D01*
X52128Y-34020D01*
X52128Y-33922D01*
X52128Y-33910D01*
X52128Y-33823D01*
X52128Y-33725D01*
X52128Y-33713D01*
X52128Y-33626D01*
X52128Y-33529D01*
X52128Y-33516D01*
X52128Y-33430D01*
X52128Y-33332D01*
X52128Y-33320D01*
X52128Y-33233D01*
X52128Y-33135D01*
X52128Y-33123D01*
X52128Y-33036D01*
X52128Y-32939D01*
X52128Y-32926D01*
X52128Y-32840D01*
X52128Y-32742D01*
X52128Y-32730D01*
X52128Y-32643D01*
X52128Y-32545D01*
X52128Y-32533D01*
X52128Y-32446D01*
X52128Y-32349D01*
X52128Y-32336D01*
X52128Y-32250D01*
X52128Y-32152D01*
X52128Y-32140D01*
X52128Y-32053D01*
X52128Y-31955D01*
X52128Y-31943D01*
X52128Y-31856D01*
X52128Y-31758D01*
X52128Y-31746D01*
X52128Y-31659D01*
X52128Y-31561D01*
X52128Y-31549D01*
X52128Y-31462D01*
X52128Y-31352D01*
X52090Y-31260D01*
X52019Y-31190D01*
X51927Y-31152D01*
X51828Y-31152D01*
X51238Y-31152D01*
X51146Y-31190D01*
X51076Y-31260D01*
X51039Y-31348D01*
X50018Y-31348D01*
X50018Y-31046D01*
X49980Y-30954D01*
X49910Y-30884D01*
X49818Y-30846D01*
X49774Y-30846D01*
X49774Y-30235D01*
X50135Y-29832D01*
X54794Y-29832D01*
X54836Y-29874D01*
X54836Y-30105D01*
X54754Y-30105D01*
X54656Y-30105D01*
X54644Y-30105D01*
X54557Y-30105D01*
X54459Y-30105D01*
X54447Y-30105D01*
X54360Y-30105D01*
X54262Y-30105D01*
X54250Y-30105D01*
X54163Y-30105D01*
X54064Y-30105D01*
X54053Y-30105D01*
X53965Y-30105D01*
X53867Y-30105D01*
X53855Y-30105D01*
X53768Y-30105D01*
X53670Y-30105D01*
X53658Y-30105D01*
X53571Y-30105D01*
X53473Y-30105D01*
X53461Y-30105D01*
X53374Y-30105D01*
X53276Y-30105D01*
X53264Y-30105D01*
X53177Y-30105D01*
X53080Y-30105D01*
X53067Y-30105D01*
X52981Y-30105D01*
X52883Y-30105D01*
X52871Y-30105D01*
X52784Y-30105D01*
X52686Y-30105D01*
X52674Y-30105D01*
X52587Y-30105D01*
X52490Y-30105D01*
X52477Y-30105D01*
X52391Y-30105D01*
X52281Y-30105D01*
X52189Y-30143D01*
X52119Y-30213D01*
X52081Y-30305D01*
X52081Y-30404D01*
X52081Y-30994D01*
X52119Y-31086D01*
X52189Y-31157D01*
X52281Y-31195D01*
X52380Y-31195D01*
X52477Y-31195D01*
X52490Y-31195D01*
X52576Y-31195D01*
X52674Y-31195D01*
X52686Y-31195D01*
X52773Y-31195D01*
X52871Y-31195D01*
X52883Y-31195D01*
X52970Y-31195D01*
X53067Y-31195D01*
X53080Y-31195D01*
X53166Y-31195D01*
X53264Y-31195D01*
X53276Y-31195D01*
X53363Y-31195D01*
X53461Y-31195D01*
X53473Y-31195D01*
X53560Y-31195D01*
X53658Y-31195D01*
X53670Y-31195D01*
X53757Y-31195D01*
X53855Y-31195D01*
X53867Y-31195D01*
X53954Y-31195D01*
X54053Y-31195D01*
X54064Y-31195D01*
X54152Y-31195D01*
X54250Y-31195D01*
X54262Y-31195D01*
X54349Y-31195D01*
X54447Y-31195D01*
X54459Y-31195D01*
X54546Y-31195D01*
X54644Y-31195D01*
X54656Y-31195D01*
X54743Y-31195D01*
X54841Y-31195D01*
X54853Y-31195D01*
X54940Y-31195D01*
X55037Y-31195D01*
X55050Y-31195D01*
X55136Y-31195D01*
X55234Y-31195D01*
X55246Y-31195D01*
X55333Y-31195D01*
X55431Y-31195D01*
X55443Y-31195D01*
X55530Y-31195D01*
X55627Y-31195D01*
X55640Y-31195D01*
X55726Y-31195D01*
X55824Y-31195D01*
X55836Y-31195D01*
X55923Y-31195D01*
X56021Y-31195D01*
X56033Y-31195D01*
X56120Y-31195D01*
X56217Y-31195D01*
X56230Y-31195D01*
X56316Y-31195D01*
X56414Y-31195D01*
X56426Y-31195D01*
X56513Y-31195D01*
X56611Y-31195D01*
X56623Y-31195D01*
X56710Y-31195D01*
X56808Y-31195D01*
X56820Y-31195D01*
X56907Y-31195D01*
X57005Y-31195D01*
X57017Y-31195D01*
X57104Y-31195D01*
X57214Y-31195D01*
X57306Y-31157D01*
X57376Y-31086D01*
X57414Y-30994D01*
X57414Y-30895D01*
X57414Y-30305D01*
X57376Y-30213D01*
X57306Y-30143D01*
X57214Y-30105D01*
X57115Y-30105D01*
X57017Y-30105D01*
X57005Y-30105D01*
X56918Y-30105D01*
X56820Y-30105D01*
X56808Y-30105D01*
X56721Y-30105D01*
X56623Y-30105D01*
X56611Y-30105D01*
X56524Y-30105D01*
X56426Y-30105D01*
X56414Y-30105D01*
X56327Y-30105D01*
X56230Y-30105D01*
X56217Y-30105D01*
X56131Y-30105D01*
X56033Y-30105D01*
X56021Y-30105D01*
X55934Y-30105D01*
X55836Y-30105D01*
X55824Y-30105D01*
X55737Y-30105D01*
X55643Y-30105D01*
X55643Y-29130D01*
X55689Y-29084D01*
X55727Y-28993D01*
X55727Y-28893D01*
X55727Y-28093D01*
X55689Y-28001D01*
X55619Y-27931D01*
X55527Y-27893D01*
X55427Y-27893D01*
X54827Y-27893D01*
X54735Y-27931D01*
X54665Y-28001D01*
X54627Y-28093D01*
X54627Y-28193D01*
X54627Y-28993D01*
X54665Y-29084D01*
X54735Y-29155D01*
X54827Y-29193D01*
X54927Y-29193D01*
X55033Y-29193D01*
X55033Y-29244D01*
X54921Y-29222D01*
X54306Y-29222D01*
X54306Y-28968D01*
X54306Y-28917D01*
X54306Y-28775D01*
X54306Y-28311D01*
X54306Y-28168D01*
X54306Y-28117D01*
X54286Y-28070D01*
X54250Y-28034D01*
X54203Y-28014D01*
X54059Y-28014D01*
X54027Y-28046D01*
X54027Y-28343D01*
X54274Y-28343D01*
X54306Y-28311D01*
X54306Y-28775D01*
X54274Y-28743D01*
X54027Y-28743D01*
X54027Y-29039D01*
X54059Y-29072D01*
X54203Y-29072D01*
X54250Y-29052D01*
X54286Y-29016D01*
X54306Y-28968D01*
X54306Y-29222D01*
X53727Y-29222D01*
X53727Y-29039D01*
X53727Y-28743D01*
X53727Y-28343D01*
X53727Y-28046D01*
X53695Y-28014D01*
X53551Y-28014D01*
X53504Y-28034D01*
X53468Y-28070D01*
X53448Y-28117D01*
X53448Y-28168D01*
X53448Y-28311D01*
X53481Y-28343D01*
X53727Y-28343D01*
X53727Y-28743D01*
X53481Y-28743D01*
X53448Y-28775D01*
X53448Y-28917D01*
X53448Y-28968D01*
X53468Y-29016D01*
X53504Y-29052D01*
X53551Y-29072D01*
X53695Y-29072D01*
X53727Y-29039D01*
X53727Y-29222D01*
X50090Y-29222D01*
X50000Y-29222D01*
X49991Y-29224D01*
X49983Y-29222D01*
X49933Y-29235D01*
X49883Y-29245D01*
X49876Y-29250D01*
X49868Y-29252D01*
X49827Y-29283D01*
X49784Y-29311D01*
X49779Y-29318D01*
X49773Y-29323D01*
X49242Y-29914D01*
X49215Y-29958D01*
X49187Y-30001D01*
X49185Y-30009D01*
X49181Y-30016D01*
X49173Y-30067D01*
X49163Y-30118D01*
X49163Y-30846D01*
X49119Y-30846D01*
X49027Y-30884D01*
X48956Y-30954D01*
X48918Y-31046D01*
X48918Y-31145D01*
X48918Y-31945D01*
X48956Y-32037D01*
X49027Y-32108D01*
X49074Y-32127D01*
X48597Y-32604D01*
X48597Y-31921D01*
X48597Y-31870D01*
X48597Y-31728D01*
X48597Y-31263D01*
X48597Y-31121D01*
X48597Y-31070D01*
X48578Y-31023D01*
X48541Y-30986D01*
X48494Y-30967D01*
X48351Y-30967D01*
X48318Y-30999D01*
X48318Y-31296D01*
X48565Y-31296D01*
X48597Y-31263D01*
X48597Y-31728D01*
X48565Y-31696D01*
X48318Y-31696D01*
X48318Y-31992D01*
X48351Y-32024D01*
X48494Y-32024D01*
X48541Y-32005D01*
X48578Y-31968D01*
X48597Y-31921D01*
X48597Y-32604D01*
X48387Y-32814D01*
X48018Y-32814D01*
X48018Y-31992D01*
X48018Y-31696D01*
X48018Y-31296D01*
X48018Y-30999D01*
X47986Y-30967D01*
X47843Y-30967D01*
X47795Y-30986D01*
X47759Y-31023D01*
X47740Y-31070D01*
X47740Y-31121D01*
X47740Y-31263D01*
X47772Y-31296D01*
X48018Y-31296D01*
X48018Y-31696D01*
X47772Y-31696D01*
X47740Y-31728D01*
X47740Y-31870D01*
X47740Y-31921D01*
X47759Y-31968D01*
X47795Y-32005D01*
X47843Y-32024D01*
X47986Y-32024D01*
X48018Y-31992D01*
X48018Y-32814D01*
X47819Y-32814D01*
X47727Y-32852D01*
X47656Y-32922D01*
X47618Y-33014D01*
X47618Y-33114D01*
X47618Y-33914D01*
X47656Y-34006D01*
X47727Y-34076D01*
X47819Y-34114D01*
X47863Y-34114D01*
X47863Y-34133D01*
X47887Y-34249D01*
X47953Y-34348D01*
X48518Y-34914D01*
X48494Y-34904D01*
X48351Y-34904D01*
X48318Y-34936D01*
X48318Y-35233D01*
X48565Y-35233D01*
X48597Y-35200D01*
X48597Y-35058D01*
X48597Y-35007D01*
X48587Y-34983D01*
X48918Y-35314D01*
X48918Y-35882D01*
X48956Y-35974D01*
X49027Y-36045D01*
X49119Y-36083D01*
X49163Y-36083D01*
X49163Y-37756D01*
X49187Y-37873D01*
X49253Y-37972D01*
X49814Y-38533D01*
X49784Y-38563D01*
X49718Y-38662D01*
X49694Y-38779D01*
X49694Y-39862D01*
X49694Y-40944D01*
X49697Y-40955D01*
X49695Y-40966D01*
X49701Y-40988D01*
X49673Y-41056D01*
X49673Y-41225D01*
X49737Y-41382D01*
X49857Y-41501D01*
X50013Y-41566D01*
X50182Y-41566D01*
X50338Y-41502D01*
X50458Y-41382D01*
X50523Y-41226D01*
X50523Y-41057D01*
X50458Y-40901D01*
X50339Y-40781D01*
X50305Y-40767D01*
X50305Y-39862D01*
X50305Y-38994D01*
X50315Y-39001D01*
X50432Y-39025D01*
X51673Y-39025D01*
X51870Y-39025D01*
X51968Y-39025D01*
X52105Y-39025D01*
X52105Y-39069D01*
X52143Y-39161D01*
X52214Y-39232D01*
X52306Y-39270D01*
X52405Y-39270D01*
X53205Y-39270D01*
X53297Y-39232D01*
X53367Y-39161D01*
X53405Y-39069D01*
X53405Y-39025D01*
X53680Y-39025D01*
X53680Y-39069D01*
X53718Y-39161D01*
X53789Y-39232D01*
X53880Y-39270D01*
X53980Y-39270D01*
X54780Y-39270D01*
X54872Y-39232D01*
X54942Y-39161D01*
X54980Y-39069D01*
X54980Y-39025D01*
X55550Y-39025D01*
X55550Y-39069D01*
X55588Y-39161D01*
X55659Y-39232D01*
X55751Y-39270D01*
X55850Y-39270D01*
X56650Y-39270D01*
X56742Y-39232D01*
X56812Y-39161D01*
X56850Y-39069D01*
X56850Y-39025D01*
X57933Y-39025D01*
X58050Y-39001D01*
X58149Y-38935D01*
X58562Y-38522D01*
X58839Y-38798D01*
X58938Y-38864D01*
X59055Y-38887D01*
X60306Y-38887D01*
X63354Y-41935D01*
X63354Y-42013D01*
X63419Y-42169D01*
X63538Y-42289D01*
X63694Y-42354D01*
X63863Y-42354D01*
X64019Y-42289D01*
X64139Y-42170D01*
X64204Y-42014D01*
X64204Y-41844D01*
X64140Y-41688D01*
X64020Y-41569D01*
X63864Y-41504D01*
X63786Y-41504D01*
X60648Y-38366D01*
X60549Y-38300D01*
X60433Y-38277D01*
X60371Y-38277D01*
X60371Y-37196D01*
X60371Y-37052D01*
X60371Y-36688D01*
X60371Y-36544D01*
X60351Y-36497D01*
X60315Y-36461D01*
X60268Y-36441D01*
X60216Y-36441D01*
X60074Y-36441D01*
X60042Y-36473D01*
X60042Y-36720D01*
X60339Y-36720D01*
X60371Y-36688D01*
X60371Y-37052D01*
X60339Y-37020D01*
X60042Y-37020D01*
X60042Y-37267D01*
X60074Y-37299D01*
X60216Y-37299D01*
X60268Y-37299D01*
X60315Y-37279D01*
X60351Y-37243D01*
X60371Y-37196D01*
X60371Y-38277D01*
X59181Y-38277D01*
X58994Y-38090D01*
X59270Y-37814D01*
X59313Y-37749D01*
X59313Y-37820D01*
X59442Y-37820D01*
X59442Y-37299D01*
X59468Y-37299D01*
X59610Y-37299D01*
X59642Y-37267D01*
X59642Y-37020D01*
X59442Y-37020D01*
X59442Y-36720D01*
X59642Y-36720D01*
X59642Y-36473D01*
X59610Y-36441D01*
X59468Y-36441D01*
X59442Y-36441D01*
X59442Y-36120D01*
X59492Y-36120D01*
X60292Y-36120D01*
X60384Y-36082D01*
X60454Y-36012D01*
X60492Y-35920D01*
X60492Y-35820D01*
X60492Y-35220D01*
X60454Y-35128D01*
X60384Y-35058D01*
X60292Y-35020D01*
X60192Y-35020D01*
X60147Y-35020D01*
X60147Y-34842D01*
X60124Y-34725D01*
X60058Y-34626D01*
X59562Y-34130D01*
X60530Y-34130D01*
X61934Y-35535D01*
X61934Y-36919D01*
X61972Y-37011D01*
X62043Y-37081D01*
X62135Y-37119D01*
X62234Y-37119D01*
X63061Y-37119D01*
X63153Y-37081D01*
X63223Y-37011D01*
X63261Y-36919D01*
X63261Y-36820D01*
X63261Y-36131D01*
X64154Y-36131D01*
X64154Y-36276D01*
X64192Y-36368D01*
X64262Y-36438D01*
X64354Y-36476D01*
X64454Y-36476D01*
X65054Y-36476D01*
X65145Y-36438D01*
X65216Y-36368D01*
X65254Y-36276D01*
X65254Y-41371D01*
X65201Y-41371D01*
X65109Y-41409D01*
X65039Y-41479D01*
X65001Y-41571D01*
X65001Y-41670D01*
X65001Y-42270D01*
X65039Y-42362D01*
X65109Y-42433D01*
X65201Y-42471D01*
X65300Y-42471D01*
X65900Y-42471D01*
X65992Y-42433D01*
X66063Y-42362D01*
X66101Y-42270D01*
X66101Y-46964D01*
X65985Y-46964D01*
X65985Y-42871D01*
X65971Y-42801D01*
X65923Y-42761D01*
X65763Y-42921D01*
X65923Y-43081D01*
X65971Y-43041D01*
X65985Y-42871D01*
X65985Y-46964D01*
X65711Y-46964D01*
X65711Y-43293D01*
X65711Y-42549D01*
X65671Y-42500D01*
X65501Y-42486D01*
X65431Y-42500D01*
X65391Y-42549D01*
X65551Y-42709D01*
X65711Y-42549D01*
X65711Y-43293D01*
X65551Y-43133D01*
X65391Y-43293D01*
X65431Y-43341D01*
X65601Y-43355D01*
X65671Y-43341D01*
X65711Y-43293D01*
X65711Y-46964D01*
X65339Y-46964D01*
X65339Y-42921D01*
X65179Y-42761D01*
X65130Y-42801D01*
X65116Y-42971D01*
X65130Y-43041D01*
X65179Y-43081D01*
X65339Y-42921D01*
X65339Y-46964D01*
X64073Y-46964D01*
X64073Y-46150D01*
X63990Y-45948D01*
X63835Y-45793D01*
X63633Y-45709D01*
X63414Y-45709D01*
X63212Y-45793D01*
X63057Y-45947D01*
X63023Y-46029D01*
X62990Y-45948D01*
X62835Y-45793D01*
X62633Y-45709D01*
X62414Y-45709D01*
X62212Y-45793D01*
X62057Y-45947D01*
X62023Y-46029D01*
X61990Y-45948D01*
X61835Y-45793D01*
X61633Y-45709D01*
X61414Y-45709D01*
X61212Y-45793D01*
X61057Y-45947D01*
X61023Y-46029D01*
X60990Y-45948D01*
X60835Y-45793D01*
X60633Y-45709D01*
X60414Y-45709D01*
X60212Y-45793D01*
X60057Y-45947D01*
X60023Y-46029D01*
X59990Y-45948D01*
X59835Y-45793D01*
X59633Y-45709D01*
X59414Y-45709D01*
X59212Y-45793D01*
X59057Y-45947D01*
X58973Y-46149D01*
X58973Y-46368D01*
X59057Y-46570D01*
X59211Y-46725D01*
X59413Y-46809D01*
X59632Y-46809D01*
X59834Y-46726D01*
X59989Y-46571D01*
X60023Y-46489D01*
X60057Y-46570D01*
X60211Y-46725D01*
X60413Y-46809D01*
X60632Y-46809D01*
X60834Y-46726D01*
X60989Y-46571D01*
X61023Y-46489D01*
X61057Y-46570D01*
X61211Y-46725D01*
X61413Y-46809D01*
X61632Y-46809D01*
X61834Y-46726D01*
X61989Y-46571D01*
X62023Y-46489D01*
X62057Y-46570D01*
X62211Y-46725D01*
X62413Y-46809D01*
X62632Y-46809D01*
X62834Y-46726D01*
X62989Y-46571D01*
X63023Y-46489D01*
X63057Y-46570D01*
X63211Y-46725D01*
X63413Y-46809D01*
X63632Y-46809D01*
X63834Y-46726D01*
X63989Y-46571D01*
X64073Y-46369D01*
X64073Y-46150D01*
X64073Y-46964D01*
X58952Y-46964D01*
X58952Y-46585D01*
X58952Y-46534D01*
X58952Y-46442D01*
X58952Y-46077D01*
X58952Y-45985D01*
X58952Y-45934D01*
X58932Y-45886D01*
X58896Y-45850D01*
X58849Y-45831D01*
X58705Y-45831D01*
X58673Y-45863D01*
X58673Y-46109D01*
X58920Y-46109D01*
X58952Y-46077D01*
X58952Y-46442D01*
X58920Y-46409D01*
X58673Y-46409D01*
X58673Y-46656D01*
X58705Y-46688D01*
X58849Y-46688D01*
X58896Y-46668D01*
X58932Y-46632D01*
X58952Y-46585D01*
X58952Y-46964D01*
X58373Y-46964D01*
X58373Y-46656D01*
X58373Y-46409D01*
X58373Y-46109D01*
X58373Y-45863D01*
X58341Y-45831D01*
X58198Y-45831D01*
X58150Y-45850D01*
X58114Y-45886D01*
X58094Y-45934D01*
X58094Y-45985D01*
X58094Y-46077D01*
X58127Y-46109D01*
X58373Y-46109D01*
X58373Y-46409D01*
X58127Y-46409D01*
X58094Y-46442D01*
X58094Y-46534D01*
X58094Y-46585D01*
X58114Y-46632D01*
X58150Y-46668D01*
X58198Y-46688D01*
X58341Y-46688D01*
X58373Y-46656D01*
X58373Y-46964D01*
X56729Y-46964D01*
X56729Y-40345D01*
X56729Y-40202D01*
X56729Y-39837D01*
X56729Y-39694D01*
X56709Y-39647D01*
X56673Y-39610D01*
X56626Y-39591D01*
X56575Y-39591D01*
X56432Y-39591D01*
X56400Y-39623D01*
X56400Y-39870D01*
X56697Y-39870D01*
X56729Y-39837D01*
X56729Y-40202D01*
X56697Y-40170D01*
X56400Y-40170D01*
X56400Y-40416D01*
X56432Y-40448D01*
X56575Y-40448D01*
X56626Y-40448D01*
X56673Y-40429D01*
X56709Y-40393D01*
X56729Y-40345D01*
X56729Y-46964D01*
X56000Y-46964D01*
X56000Y-40416D01*
X56000Y-40170D01*
X56000Y-39870D01*
X56000Y-39623D01*
X55968Y-39591D01*
X55826Y-39591D01*
X55775Y-39591D01*
X55727Y-39610D01*
X55691Y-39647D01*
X55672Y-39694D01*
X55672Y-39837D01*
X55704Y-39870D01*
X56000Y-39870D01*
X56000Y-40170D01*
X55704Y-40170D01*
X55672Y-40202D01*
X55672Y-40345D01*
X55691Y-40393D01*
X55727Y-40429D01*
X55775Y-40448D01*
X55826Y-40448D01*
X55968Y-40448D01*
X56000Y-40416D01*
X56000Y-46964D01*
X54917Y-46964D01*
X54917Y-44294D01*
X54859Y-44155D01*
X54859Y-40345D01*
X54859Y-40202D01*
X54859Y-39837D01*
X54859Y-39694D01*
X54839Y-39647D01*
X54803Y-39610D01*
X54756Y-39591D01*
X54705Y-39591D01*
X54562Y-39591D01*
X54530Y-39623D01*
X54530Y-39870D01*
X54827Y-39870D01*
X54859Y-39837D01*
X54859Y-40202D01*
X54827Y-40170D01*
X54530Y-40170D01*
X54530Y-40416D01*
X54562Y-40448D01*
X54705Y-40448D01*
X54756Y-40448D01*
X54803Y-40429D01*
X54839Y-40393D01*
X54859Y-40345D01*
X54859Y-44155D01*
X54789Y-43985D01*
X54553Y-43749D01*
X54244Y-43621D01*
X54130Y-43620D01*
X54130Y-40416D01*
X54130Y-40170D01*
X54130Y-39870D01*
X54130Y-39623D01*
X54098Y-39591D01*
X53956Y-39591D01*
X53905Y-39591D01*
X53857Y-39610D01*
X53821Y-39647D01*
X53801Y-39694D01*
X53801Y-39837D01*
X53834Y-39870D01*
X54130Y-39870D01*
X54130Y-40170D01*
X53834Y-40170D01*
X53801Y-40202D01*
X53801Y-40345D01*
X53821Y-40393D01*
X53857Y-40429D01*
X53905Y-40448D01*
X53956Y-40448D01*
X54098Y-40448D01*
X54130Y-40416D01*
X54130Y-43620D01*
X53909Y-43620D01*
X53600Y-43748D01*
X53364Y-43984D01*
X53284Y-44176D01*
X53284Y-40345D01*
X53284Y-40202D01*
X53284Y-39837D01*
X53284Y-39694D01*
X53265Y-39647D01*
X53228Y-39610D01*
X53181Y-39591D01*
X53130Y-39591D01*
X52988Y-39591D01*
X52955Y-39623D01*
X52955Y-39870D01*
X53252Y-39870D01*
X53284Y-39837D01*
X53284Y-40202D01*
X53252Y-40170D01*
X52955Y-40170D01*
X52955Y-40416D01*
X52988Y-40448D01*
X53130Y-40448D01*
X53181Y-40448D01*
X53228Y-40429D01*
X53265Y-40393D01*
X53284Y-40345D01*
X53284Y-44176D01*
X53236Y-44293D01*
X53235Y-44627D01*
X53363Y-44936D01*
X53599Y-45173D01*
X53908Y-45301D01*
X54242Y-45302D01*
X54551Y-45174D01*
X54788Y-44938D01*
X54916Y-44629D01*
X54917Y-44294D01*
X54917Y-46964D01*
X53226Y-46964D01*
X53226Y-42552D01*
X53142Y-42350D01*
X52988Y-42195D01*
X52786Y-42111D01*
X52567Y-42111D01*
X52555Y-42116D01*
X52555Y-40416D01*
X52555Y-40170D01*
X52555Y-39870D01*
X52555Y-39623D01*
X52523Y-39591D01*
X52381Y-39591D01*
X52330Y-39591D01*
X52282Y-39610D01*
X52246Y-39647D01*
X52227Y-39694D01*
X52227Y-39837D01*
X52259Y-39870D01*
X52555Y-39870D01*
X52555Y-40170D01*
X52259Y-40170D01*
X52227Y-40202D01*
X52227Y-40345D01*
X52246Y-40393D01*
X52282Y-40429D01*
X52330Y-40448D01*
X52381Y-40448D01*
X52523Y-40448D01*
X52555Y-40416D01*
X52555Y-42116D01*
X52365Y-42194D01*
X52210Y-42349D01*
X52176Y-42431D01*
X52142Y-42350D01*
X51988Y-42195D01*
X51786Y-42111D01*
X51567Y-42111D01*
X51365Y-42194D01*
X51210Y-42349D01*
X51176Y-42431D01*
X51142Y-42350D01*
X50988Y-42195D01*
X50786Y-42111D01*
X50567Y-42111D01*
X50365Y-42194D01*
X50210Y-42349D01*
X50126Y-42551D01*
X50126Y-42770D01*
X50209Y-42972D01*
X50364Y-43127D01*
X50566Y-43211D01*
X50785Y-43211D01*
X50987Y-43127D01*
X51142Y-42973D01*
X51176Y-42891D01*
X51209Y-42972D01*
X51364Y-43127D01*
X51566Y-43211D01*
X51785Y-43211D01*
X51987Y-43127D01*
X52142Y-42973D01*
X52176Y-42891D01*
X52209Y-42972D01*
X52364Y-43127D01*
X52566Y-43211D01*
X52785Y-43211D01*
X52987Y-43127D01*
X53142Y-42973D01*
X53226Y-42771D01*
X53226Y-42552D01*
X53226Y-46964D01*
X52726Y-46964D01*
X52726Y-43552D01*
X52642Y-43350D01*
X52488Y-43195D01*
X52286Y-43111D01*
X52067Y-43111D01*
X51865Y-43194D01*
X51710Y-43349D01*
X51626Y-43551D01*
X51626Y-43770D01*
X51709Y-43972D01*
X51864Y-44127D01*
X52066Y-44211D01*
X52285Y-44211D01*
X52487Y-44127D01*
X52642Y-43973D01*
X52726Y-43771D01*
X52726Y-43552D01*
X52726Y-46964D01*
X51610Y-46964D01*
X51610Y-43611D01*
X51596Y-43541D01*
X51548Y-43501D01*
X51388Y-43661D01*
X51548Y-43821D01*
X51596Y-43781D01*
X51610Y-43611D01*
X51610Y-46964D01*
X51336Y-46964D01*
X51336Y-44033D01*
X51336Y-43289D01*
X51296Y-43241D01*
X51126Y-43227D01*
X51056Y-43241D01*
X51016Y-43289D01*
X51176Y-43449D01*
X51336Y-43289D01*
X51336Y-44033D01*
X51176Y-43873D01*
X51016Y-44033D01*
X51056Y-44081D01*
X51226Y-44095D01*
X51296Y-44081D01*
X51336Y-44033D01*
X51336Y-46964D01*
X50964Y-46964D01*
X50964Y-43661D01*
X50804Y-43501D01*
X50756Y-43541D01*
X50742Y-43711D01*
X50756Y-43781D01*
X50804Y-43821D01*
X50964Y-43661D01*
X50964Y-46964D01*
X50726Y-46964D01*
X50726Y-43552D01*
X50642Y-43350D01*
X50488Y-43195D01*
X50286Y-43111D01*
X50067Y-43111D01*
X49865Y-43194D01*
X49710Y-43349D01*
X49626Y-43551D01*
X49626Y-43770D01*
X49709Y-43972D01*
X49864Y-44127D01*
X50066Y-44211D01*
X50285Y-44211D01*
X50487Y-44127D01*
X50642Y-43973D01*
X50726Y-43771D01*
X50726Y-43552D01*
X50726Y-46964D01*
X49617Y-46964D01*
X49617Y-44294D01*
X49489Y-43985D01*
X49253Y-43749D01*
X48944Y-43621D01*
X48609Y-43620D01*
X48597Y-43625D01*
X48597Y-35858D01*
X48597Y-35807D01*
X48597Y-35665D01*
X48565Y-35633D01*
X48318Y-35633D01*
X48318Y-35929D01*
X48351Y-35961D01*
X48494Y-35961D01*
X48541Y-35942D01*
X48578Y-35905D01*
X48597Y-35858D01*
X48597Y-43625D01*
X48300Y-43748D01*
X48064Y-43984D01*
X48018Y-44093D01*
X48018Y-35929D01*
X48018Y-35633D01*
X48018Y-35233D01*
X48018Y-34936D01*
X47986Y-34904D01*
X47843Y-34904D01*
X47795Y-34923D01*
X47759Y-34960D01*
X47740Y-35007D01*
X47740Y-35058D01*
X47740Y-35200D01*
X47772Y-35233D01*
X48018Y-35233D01*
X48018Y-35633D01*
X47772Y-35633D01*
X47740Y-35665D01*
X47740Y-35807D01*
X47740Y-35858D01*
X47759Y-35905D01*
X47795Y-35942D01*
X47843Y-35961D01*
X47986Y-35961D01*
X48018Y-35929D01*
X48018Y-44093D01*
X47936Y-44293D01*
X47935Y-44627D01*
X48063Y-44936D01*
X48299Y-45173D01*
X48608Y-45301D01*
X48942Y-45302D01*
X49251Y-45174D01*
X49488Y-44938D01*
X49616Y-44629D01*
X49617Y-44294D01*
X49617Y-46964D01*
X47523Y-46964D01*
X47523Y-27838D01*
X66649Y-27838D01*
X66649Y-46964D01*
M02*
