%FSLAX34Y34*%
G04 Gerber Fmt 3.4, Leading zero omitted, Abs format*
G04 (created by PCBNEW (2013-12-18 BZR 4557)-product) date vie 25 abr 2014 17:22:53 CLST*
%MOIN*%
G01*
G70*
G90*
G04 APERTURE LIST*
%ADD10C,0.005906*%
%ADD11C,0.060000*%
%ADD12C,0.165354*%
%ADD13R,0.060000X0.060000*%
%ADD14C,0.035000*%
%ADD15C,0.011024*%
%ADD16C,0.010000*%
G04 APERTURE END LIST*
G54D10*
G54D11*
X51676Y-42661D03*
X50676Y-42661D03*
X52676Y-42661D03*
X50176Y-43661D03*
X51176Y-43661D03*
X52176Y-43661D03*
G54D12*
X54076Y-44461D03*
X48776Y-44461D03*
G54D13*
X65551Y-41921D03*
G54D11*
X65551Y-42921D03*
G54D13*
X58523Y-46259D03*
G54D11*
X59523Y-46259D03*
X60523Y-46259D03*
X61523Y-46259D03*
X62523Y-46259D03*
X63523Y-46259D03*
G54D13*
X60204Y-28740D03*
G54D11*
X61204Y-28740D03*
X62204Y-28740D03*
X63204Y-28740D03*
X64204Y-28740D03*
G54D14*
X50196Y-36712D03*
X50787Y-37795D03*
X57283Y-38188D03*
X57677Y-37598D03*
X49409Y-34350D03*
X50098Y-41141D03*
X63779Y-41929D03*
G54D15*
X52176Y-43661D02*
X52992Y-43661D01*
X50984Y-36712D02*
X50196Y-36712D01*
X51771Y-37500D02*
X50984Y-36712D01*
X51771Y-41141D02*
X51771Y-37500D01*
X52165Y-41535D02*
X51771Y-41141D01*
X52755Y-41535D02*
X52165Y-41535D01*
X53444Y-42224D02*
X52755Y-41535D01*
X53444Y-43208D02*
X53444Y-42224D01*
X52992Y-43661D02*
X53444Y-43208D01*
X51676Y-42661D02*
X51676Y-42129D01*
X50787Y-41240D02*
X50787Y-37795D01*
X51676Y-42129D02*
X50787Y-41240D01*
X61523Y-46259D02*
X61523Y-42625D01*
X57283Y-38287D02*
X57283Y-38188D01*
X61523Y-42625D02*
X57283Y-38287D01*
X62523Y-42444D02*
X62523Y-46259D01*
X57677Y-37598D02*
X62523Y-42444D01*
X50176Y-43661D02*
X49665Y-43661D01*
X49409Y-43405D02*
X49409Y-34350D01*
X49665Y-43661D02*
X49409Y-43405D01*
X50098Y-41633D02*
X50098Y-41141D01*
X50676Y-42211D02*
X50098Y-41633D01*
X50676Y-42211D02*
X50676Y-42661D01*
X65551Y-41921D02*
X63787Y-41921D01*
X63787Y-41921D02*
X63779Y-41929D01*
G54D10*
G36*
X66649Y-46964D02*
X66189Y-46964D01*
X66189Y-42920D01*
X66140Y-42678D01*
X66101Y-42666D01*
X66101Y-42270D01*
X66101Y-42171D01*
X66101Y-41571D01*
X66063Y-41479D01*
X65992Y-41409D01*
X65900Y-41371D01*
X65801Y-41371D01*
X65201Y-41371D01*
X65109Y-41409D01*
X65039Y-41479D01*
X65001Y-41571D01*
X65001Y-41616D01*
X64842Y-41616D01*
X64842Y-28739D01*
X64794Y-28497D01*
X64689Y-28467D01*
X64477Y-28679D01*
X64477Y-28255D01*
X64447Y-28150D01*
X64203Y-28102D01*
X63961Y-28150D01*
X63931Y-28255D01*
X64204Y-28528D01*
X64477Y-28255D01*
X64477Y-28679D01*
X64416Y-28740D01*
X64689Y-29012D01*
X64794Y-28983D01*
X64842Y-28739D01*
X64842Y-41616D01*
X64477Y-41616D01*
X64477Y-29225D01*
X64204Y-28952D01*
X63992Y-29164D01*
X63992Y-28740D01*
X63719Y-28467D01*
X63690Y-28475D01*
X63671Y-28429D01*
X63516Y-28274D01*
X63314Y-28190D01*
X63095Y-28190D01*
X62893Y-28273D01*
X62738Y-28428D01*
X62704Y-28510D01*
X62671Y-28429D01*
X62516Y-28274D01*
X62314Y-28190D01*
X62095Y-28190D01*
X61893Y-28273D01*
X61738Y-28428D01*
X61704Y-28510D01*
X61671Y-28429D01*
X61516Y-28274D01*
X61314Y-28190D01*
X61095Y-28190D01*
X60893Y-28273D01*
X60754Y-28412D01*
X60754Y-28390D01*
X60716Y-28298D01*
X60646Y-28228D01*
X60554Y-28190D01*
X60454Y-28190D01*
X59854Y-28190D01*
X59763Y-28228D01*
X59692Y-28298D01*
X59654Y-28390D01*
X59654Y-28489D01*
X59654Y-29089D01*
X59692Y-29181D01*
X59763Y-29252D01*
X59854Y-29290D01*
X59954Y-29290D01*
X60554Y-29290D01*
X60646Y-29252D01*
X60716Y-29181D01*
X60754Y-29089D01*
X60754Y-29067D01*
X60892Y-29206D01*
X61094Y-29290D01*
X61313Y-29290D01*
X61515Y-29206D01*
X61670Y-29052D01*
X61704Y-28970D01*
X61738Y-29051D01*
X61892Y-29206D01*
X62094Y-29290D01*
X62313Y-29290D01*
X62515Y-29206D01*
X62670Y-29052D01*
X62704Y-28970D01*
X62738Y-29051D01*
X62892Y-29206D01*
X63094Y-29290D01*
X63313Y-29290D01*
X63515Y-29206D01*
X63670Y-29052D01*
X63690Y-29004D01*
X63719Y-29012D01*
X63992Y-28740D01*
X63992Y-29164D01*
X63931Y-29225D01*
X63961Y-29329D01*
X64205Y-29378D01*
X64447Y-29329D01*
X64477Y-29225D01*
X64477Y-41616D01*
X64067Y-41616D01*
X64020Y-41569D01*
X63864Y-41504D01*
X63695Y-41504D01*
X63539Y-41568D01*
X63419Y-41688D01*
X63354Y-41844D01*
X63354Y-42013D01*
X63419Y-42169D01*
X63538Y-42289D01*
X63694Y-42354D01*
X63863Y-42354D01*
X64019Y-42289D01*
X64083Y-42226D01*
X65001Y-42226D01*
X65001Y-42270D01*
X65039Y-42362D01*
X65109Y-42433D01*
X65201Y-42471D01*
X65300Y-42471D01*
X65313Y-42471D01*
X65551Y-42709D01*
X65789Y-42471D01*
X65900Y-42471D01*
X65992Y-42433D01*
X66063Y-42362D01*
X66101Y-42270D01*
X66101Y-42666D01*
X66036Y-42648D01*
X65763Y-42921D01*
X66036Y-43194D01*
X66140Y-43164D01*
X66189Y-42920D01*
X66189Y-46964D01*
X65824Y-46964D01*
X65824Y-43406D01*
X65551Y-43133D01*
X65339Y-43345D01*
X65339Y-42921D01*
X65066Y-42648D01*
X64961Y-42678D01*
X64913Y-42922D01*
X64961Y-43164D01*
X65066Y-43194D01*
X65339Y-42921D01*
X65339Y-43345D01*
X65278Y-43406D01*
X65308Y-43510D01*
X65552Y-43559D01*
X65794Y-43510D01*
X65824Y-43406D01*
X65824Y-46964D01*
X64073Y-46964D01*
X59149Y-46964D01*
X59149Y-46663D01*
X59211Y-46725D01*
X59413Y-46809D01*
X59632Y-46809D01*
X59834Y-46726D01*
X59989Y-46571D01*
X60023Y-46489D01*
X60057Y-46570D01*
X60211Y-46725D01*
X60413Y-46809D01*
X60632Y-46809D01*
X60834Y-46726D01*
X60989Y-46571D01*
X61023Y-46489D01*
X61057Y-46570D01*
X61211Y-46725D01*
X61413Y-46809D01*
X61632Y-46809D01*
X61834Y-46726D01*
X61989Y-46571D01*
X62023Y-46489D01*
X62057Y-46570D01*
X62211Y-46725D01*
X62413Y-46809D01*
X62632Y-46809D01*
X62834Y-46726D01*
X62989Y-46571D01*
X63023Y-46489D01*
X63057Y-46570D01*
X63211Y-46725D01*
X63413Y-46809D01*
X63632Y-46809D01*
X63834Y-46726D01*
X63989Y-46571D01*
X64073Y-46369D01*
X64073Y-46150D01*
X63990Y-45948D01*
X63835Y-45793D01*
X63633Y-45709D01*
X63414Y-45709D01*
X63212Y-45793D01*
X63057Y-45947D01*
X63023Y-46029D01*
X62990Y-45948D01*
X62835Y-45793D01*
X62828Y-45791D01*
X62828Y-42444D01*
X62805Y-42328D01*
X62739Y-42229D01*
X58102Y-37591D01*
X58102Y-37514D01*
X58037Y-37357D01*
X57918Y-37238D01*
X57762Y-37173D01*
X57592Y-37173D01*
X57436Y-37237D01*
X57317Y-37357D01*
X57252Y-37513D01*
X57252Y-37682D01*
X57285Y-37763D01*
X57199Y-37763D01*
X57043Y-37828D01*
X56923Y-37947D01*
X56858Y-38104D01*
X56858Y-38273D01*
X56922Y-38429D01*
X57042Y-38549D01*
X57160Y-38598D01*
X61218Y-42750D01*
X61218Y-45790D01*
X61212Y-45793D01*
X61057Y-45947D01*
X61023Y-46029D01*
X60990Y-45948D01*
X60835Y-45793D01*
X60633Y-45709D01*
X60414Y-45709D01*
X60212Y-45793D01*
X60057Y-45947D01*
X60023Y-46029D01*
X59990Y-45948D01*
X59835Y-45793D01*
X59633Y-45709D01*
X59414Y-45709D01*
X59212Y-45793D01*
X59149Y-45856D01*
X59149Y-45309D01*
X58823Y-45309D01*
X58823Y-45634D01*
X58755Y-45634D01*
X58673Y-45715D01*
X58673Y-46109D01*
X58823Y-46109D01*
X58823Y-46409D01*
X58673Y-46409D01*
X58673Y-46804D01*
X58755Y-46885D01*
X58823Y-46885D01*
X58823Y-46964D01*
X58373Y-46964D01*
X58373Y-46804D01*
X58373Y-46409D01*
X58373Y-46109D01*
X58373Y-45715D01*
X58292Y-45634D01*
X58158Y-45634D01*
X58039Y-45683D01*
X57947Y-45775D01*
X57898Y-45895D01*
X57898Y-46024D01*
X57898Y-46028D01*
X57979Y-46109D01*
X58373Y-46109D01*
X58373Y-46409D01*
X57979Y-46409D01*
X57898Y-46491D01*
X57898Y-46495D01*
X57898Y-46624D01*
X57947Y-46744D01*
X58039Y-46835D01*
X58158Y-46885D01*
X58292Y-46885D01*
X58373Y-46804D01*
X58373Y-46964D01*
X55153Y-46964D01*
X55153Y-44248D01*
X54989Y-43852D01*
X54687Y-43549D01*
X54291Y-43384D01*
X53863Y-43384D01*
X53586Y-43498D01*
X53660Y-43424D01*
X53660Y-43424D01*
X53660Y-43424D01*
X53726Y-43325D01*
X53726Y-43325D01*
X53730Y-43306D01*
X53750Y-43208D01*
X53750Y-43208D01*
X53750Y-43208D01*
X53750Y-42224D01*
X53750Y-42224D01*
X53750Y-42224D01*
X53730Y-42127D01*
X53726Y-42107D01*
X53726Y-42107D01*
X53660Y-42008D01*
X52971Y-41319D01*
X52872Y-41253D01*
X52755Y-41230D01*
X52291Y-41230D01*
X52076Y-41015D01*
X52076Y-37500D01*
X52053Y-37383D01*
X51987Y-37284D01*
X51200Y-36496D01*
X51101Y-36430D01*
X50984Y-36407D01*
X50492Y-36407D01*
X50437Y-36352D01*
X50281Y-36287D01*
X50112Y-36287D01*
X49956Y-36352D01*
X49836Y-36471D01*
X49771Y-36627D01*
X49771Y-36796D01*
X49836Y-36953D01*
X49955Y-37072D01*
X50111Y-37137D01*
X50281Y-37137D01*
X50437Y-37073D01*
X50492Y-37017D01*
X50857Y-37017D01*
X51466Y-37626D01*
X51466Y-41141D01*
X51489Y-41258D01*
X51555Y-41357D01*
X51949Y-41751D01*
X51949Y-41751D01*
X51949Y-41751D01*
X52048Y-41817D01*
X52048Y-41817D01*
X52067Y-41821D01*
X52165Y-41840D01*
X52165Y-41840D01*
X52165Y-41840D01*
X52629Y-41840D01*
X52981Y-42192D01*
X52786Y-42111D01*
X52567Y-42111D01*
X52365Y-42194D01*
X52210Y-42349D01*
X52176Y-42431D01*
X52142Y-42350D01*
X51988Y-42195D01*
X51981Y-42192D01*
X51981Y-42129D01*
X51958Y-42012D01*
X51892Y-41913D01*
X51092Y-41113D01*
X51092Y-38091D01*
X51147Y-38036D01*
X51212Y-37880D01*
X51212Y-37711D01*
X51147Y-37554D01*
X51028Y-37435D01*
X50872Y-37370D01*
X50703Y-37370D01*
X50546Y-37434D01*
X50427Y-37554D01*
X50362Y-37710D01*
X50362Y-37879D01*
X50426Y-38035D01*
X50482Y-38091D01*
X50482Y-40957D01*
X50458Y-40901D01*
X50339Y-40781D01*
X50183Y-40716D01*
X50014Y-40716D01*
X49857Y-40781D01*
X49738Y-40900D01*
X49714Y-40957D01*
X49714Y-34646D01*
X49769Y-34591D01*
X49834Y-34435D01*
X49834Y-34266D01*
X49769Y-34109D01*
X49650Y-33990D01*
X49494Y-33925D01*
X49325Y-33925D01*
X49169Y-33989D01*
X49049Y-34109D01*
X48984Y-34265D01*
X48984Y-34434D01*
X49048Y-34590D01*
X49104Y-34646D01*
X49104Y-43405D01*
X49110Y-43434D01*
X48991Y-43384D01*
X48563Y-43384D01*
X48167Y-43548D01*
X47864Y-43850D01*
X47699Y-44246D01*
X47699Y-44674D01*
X47863Y-45070D01*
X48165Y-45373D01*
X48561Y-45538D01*
X48989Y-45538D01*
X49385Y-45374D01*
X49688Y-45072D01*
X49852Y-44676D01*
X49853Y-44248D01*
X49760Y-44023D01*
X49864Y-44127D01*
X50066Y-44211D01*
X50285Y-44211D01*
X50487Y-44127D01*
X50642Y-43973D01*
X50662Y-43925D01*
X50691Y-43934D01*
X50964Y-43661D01*
X50858Y-43555D01*
X51070Y-43343D01*
X51176Y-43449D01*
X51282Y-43343D01*
X51494Y-43555D01*
X51388Y-43661D01*
X51661Y-43934D01*
X51690Y-43925D01*
X51709Y-43972D01*
X51864Y-44127D01*
X52066Y-44211D01*
X52285Y-44211D01*
X52487Y-44127D01*
X52642Y-43973D01*
X52645Y-43966D01*
X52992Y-43966D01*
X53108Y-43943D01*
X53132Y-43927D01*
X52999Y-44246D01*
X52999Y-44674D01*
X53163Y-45070D01*
X53465Y-45373D01*
X53861Y-45538D01*
X54289Y-45538D01*
X54685Y-45374D01*
X54988Y-45072D01*
X55152Y-44676D01*
X55153Y-44248D01*
X55153Y-46964D01*
X51449Y-46964D01*
X51449Y-44146D01*
X51176Y-43873D01*
X50903Y-44146D01*
X50933Y-44251D01*
X51177Y-44299D01*
X51419Y-44251D01*
X51449Y-44146D01*
X51449Y-46964D01*
X47523Y-46964D01*
X47523Y-27838D01*
X66649Y-27838D01*
X66649Y-46964D01*
X66649Y-46964D01*
G37*
G54D16*
X66649Y-46964D02*
X66189Y-46964D01*
X66189Y-42920D01*
X66140Y-42678D01*
X66101Y-42666D01*
X66101Y-42270D01*
X66101Y-42171D01*
X66101Y-41571D01*
X66063Y-41479D01*
X65992Y-41409D01*
X65900Y-41371D01*
X65801Y-41371D01*
X65201Y-41371D01*
X65109Y-41409D01*
X65039Y-41479D01*
X65001Y-41571D01*
X65001Y-41616D01*
X64842Y-41616D01*
X64842Y-28739D01*
X64794Y-28497D01*
X64689Y-28467D01*
X64477Y-28679D01*
X64477Y-28255D01*
X64447Y-28150D01*
X64203Y-28102D01*
X63961Y-28150D01*
X63931Y-28255D01*
X64204Y-28528D01*
X64477Y-28255D01*
X64477Y-28679D01*
X64416Y-28740D01*
X64689Y-29012D01*
X64794Y-28983D01*
X64842Y-28739D01*
X64842Y-41616D01*
X64477Y-41616D01*
X64477Y-29225D01*
X64204Y-28952D01*
X63992Y-29164D01*
X63992Y-28740D01*
X63719Y-28467D01*
X63690Y-28475D01*
X63671Y-28429D01*
X63516Y-28274D01*
X63314Y-28190D01*
X63095Y-28190D01*
X62893Y-28273D01*
X62738Y-28428D01*
X62704Y-28510D01*
X62671Y-28429D01*
X62516Y-28274D01*
X62314Y-28190D01*
X62095Y-28190D01*
X61893Y-28273D01*
X61738Y-28428D01*
X61704Y-28510D01*
X61671Y-28429D01*
X61516Y-28274D01*
X61314Y-28190D01*
X61095Y-28190D01*
X60893Y-28273D01*
X60754Y-28412D01*
X60754Y-28390D01*
X60716Y-28298D01*
X60646Y-28228D01*
X60554Y-28190D01*
X60454Y-28190D01*
X59854Y-28190D01*
X59763Y-28228D01*
X59692Y-28298D01*
X59654Y-28390D01*
X59654Y-28489D01*
X59654Y-29089D01*
X59692Y-29181D01*
X59763Y-29252D01*
X59854Y-29290D01*
X59954Y-29290D01*
X60554Y-29290D01*
X60646Y-29252D01*
X60716Y-29181D01*
X60754Y-29089D01*
X60754Y-29067D01*
X60892Y-29206D01*
X61094Y-29290D01*
X61313Y-29290D01*
X61515Y-29206D01*
X61670Y-29052D01*
X61704Y-28970D01*
X61738Y-29051D01*
X61892Y-29206D01*
X62094Y-29290D01*
X62313Y-29290D01*
X62515Y-29206D01*
X62670Y-29052D01*
X62704Y-28970D01*
X62738Y-29051D01*
X62892Y-29206D01*
X63094Y-29290D01*
X63313Y-29290D01*
X63515Y-29206D01*
X63670Y-29052D01*
X63690Y-29004D01*
X63719Y-29012D01*
X63992Y-28740D01*
X63992Y-29164D01*
X63931Y-29225D01*
X63961Y-29329D01*
X64205Y-29378D01*
X64447Y-29329D01*
X64477Y-29225D01*
X64477Y-41616D01*
X64067Y-41616D01*
X64020Y-41569D01*
X63864Y-41504D01*
X63695Y-41504D01*
X63539Y-41568D01*
X63419Y-41688D01*
X63354Y-41844D01*
X63354Y-42013D01*
X63419Y-42169D01*
X63538Y-42289D01*
X63694Y-42354D01*
X63863Y-42354D01*
X64019Y-42289D01*
X64083Y-42226D01*
X65001Y-42226D01*
X65001Y-42270D01*
X65039Y-42362D01*
X65109Y-42433D01*
X65201Y-42471D01*
X65300Y-42471D01*
X65313Y-42471D01*
X65551Y-42709D01*
X65789Y-42471D01*
X65900Y-42471D01*
X65992Y-42433D01*
X66063Y-42362D01*
X66101Y-42270D01*
X66101Y-42666D01*
X66036Y-42648D01*
X65763Y-42921D01*
X66036Y-43194D01*
X66140Y-43164D01*
X66189Y-42920D01*
X66189Y-46964D01*
X65824Y-46964D01*
X65824Y-43406D01*
X65551Y-43133D01*
X65339Y-43345D01*
X65339Y-42921D01*
X65066Y-42648D01*
X64961Y-42678D01*
X64913Y-42922D01*
X64961Y-43164D01*
X65066Y-43194D01*
X65339Y-42921D01*
X65339Y-43345D01*
X65278Y-43406D01*
X65308Y-43510D01*
X65552Y-43559D01*
X65794Y-43510D01*
X65824Y-43406D01*
X65824Y-46964D01*
X64073Y-46964D01*
X59149Y-46964D01*
X59149Y-46663D01*
X59211Y-46725D01*
X59413Y-46809D01*
X59632Y-46809D01*
X59834Y-46726D01*
X59989Y-46571D01*
X60023Y-46489D01*
X60057Y-46570D01*
X60211Y-46725D01*
X60413Y-46809D01*
X60632Y-46809D01*
X60834Y-46726D01*
X60989Y-46571D01*
X61023Y-46489D01*
X61057Y-46570D01*
X61211Y-46725D01*
X61413Y-46809D01*
X61632Y-46809D01*
X61834Y-46726D01*
X61989Y-46571D01*
X62023Y-46489D01*
X62057Y-46570D01*
X62211Y-46725D01*
X62413Y-46809D01*
X62632Y-46809D01*
X62834Y-46726D01*
X62989Y-46571D01*
X63023Y-46489D01*
X63057Y-46570D01*
X63211Y-46725D01*
X63413Y-46809D01*
X63632Y-46809D01*
X63834Y-46726D01*
X63989Y-46571D01*
X64073Y-46369D01*
X64073Y-46150D01*
X63990Y-45948D01*
X63835Y-45793D01*
X63633Y-45709D01*
X63414Y-45709D01*
X63212Y-45793D01*
X63057Y-45947D01*
X63023Y-46029D01*
X62990Y-45948D01*
X62835Y-45793D01*
X62828Y-45791D01*
X62828Y-42444D01*
X62805Y-42328D01*
X62739Y-42229D01*
X58102Y-37591D01*
X58102Y-37514D01*
X58037Y-37357D01*
X57918Y-37238D01*
X57762Y-37173D01*
X57592Y-37173D01*
X57436Y-37237D01*
X57317Y-37357D01*
X57252Y-37513D01*
X57252Y-37682D01*
X57285Y-37763D01*
X57199Y-37763D01*
X57043Y-37828D01*
X56923Y-37947D01*
X56858Y-38104D01*
X56858Y-38273D01*
X56922Y-38429D01*
X57042Y-38549D01*
X57160Y-38598D01*
X61218Y-42750D01*
X61218Y-45790D01*
X61212Y-45793D01*
X61057Y-45947D01*
X61023Y-46029D01*
X60990Y-45948D01*
X60835Y-45793D01*
X60633Y-45709D01*
X60414Y-45709D01*
X60212Y-45793D01*
X60057Y-45947D01*
X60023Y-46029D01*
X59990Y-45948D01*
X59835Y-45793D01*
X59633Y-45709D01*
X59414Y-45709D01*
X59212Y-45793D01*
X59149Y-45856D01*
X59149Y-45309D01*
X58823Y-45309D01*
X58823Y-45634D01*
X58755Y-45634D01*
X58673Y-45715D01*
X58673Y-46109D01*
X58823Y-46109D01*
X58823Y-46409D01*
X58673Y-46409D01*
X58673Y-46804D01*
X58755Y-46885D01*
X58823Y-46885D01*
X58823Y-46964D01*
X58373Y-46964D01*
X58373Y-46804D01*
X58373Y-46409D01*
X58373Y-46109D01*
X58373Y-45715D01*
X58292Y-45634D01*
X58158Y-45634D01*
X58039Y-45683D01*
X57947Y-45775D01*
X57898Y-45895D01*
X57898Y-46024D01*
X57898Y-46028D01*
X57979Y-46109D01*
X58373Y-46109D01*
X58373Y-46409D01*
X57979Y-46409D01*
X57898Y-46491D01*
X57898Y-46495D01*
X57898Y-46624D01*
X57947Y-46744D01*
X58039Y-46835D01*
X58158Y-46885D01*
X58292Y-46885D01*
X58373Y-46804D01*
X58373Y-46964D01*
X55153Y-46964D01*
X55153Y-44248D01*
X54989Y-43852D01*
X54687Y-43549D01*
X54291Y-43384D01*
X53863Y-43384D01*
X53586Y-43498D01*
X53660Y-43424D01*
X53660Y-43424D01*
X53660Y-43424D01*
X53726Y-43325D01*
X53726Y-43325D01*
X53730Y-43306D01*
X53750Y-43208D01*
X53750Y-43208D01*
X53750Y-43208D01*
X53750Y-42224D01*
X53750Y-42224D01*
X53750Y-42224D01*
X53730Y-42127D01*
X53726Y-42107D01*
X53726Y-42107D01*
X53660Y-42008D01*
X52971Y-41319D01*
X52872Y-41253D01*
X52755Y-41230D01*
X52291Y-41230D01*
X52076Y-41015D01*
X52076Y-37500D01*
X52053Y-37383D01*
X51987Y-37284D01*
X51200Y-36496D01*
X51101Y-36430D01*
X50984Y-36407D01*
X50492Y-36407D01*
X50437Y-36352D01*
X50281Y-36287D01*
X50112Y-36287D01*
X49956Y-36352D01*
X49836Y-36471D01*
X49771Y-36627D01*
X49771Y-36796D01*
X49836Y-36953D01*
X49955Y-37072D01*
X50111Y-37137D01*
X50281Y-37137D01*
X50437Y-37073D01*
X50492Y-37017D01*
X50857Y-37017D01*
X51466Y-37626D01*
X51466Y-41141D01*
X51489Y-41258D01*
X51555Y-41357D01*
X51949Y-41751D01*
X51949Y-41751D01*
X51949Y-41751D01*
X52048Y-41817D01*
X52048Y-41817D01*
X52067Y-41821D01*
X52165Y-41840D01*
X52165Y-41840D01*
X52165Y-41840D01*
X52629Y-41840D01*
X52981Y-42192D01*
X52786Y-42111D01*
X52567Y-42111D01*
X52365Y-42194D01*
X52210Y-42349D01*
X52176Y-42431D01*
X52142Y-42350D01*
X51988Y-42195D01*
X51981Y-42192D01*
X51981Y-42129D01*
X51958Y-42012D01*
X51892Y-41913D01*
X51092Y-41113D01*
X51092Y-38091D01*
X51147Y-38036D01*
X51212Y-37880D01*
X51212Y-37711D01*
X51147Y-37554D01*
X51028Y-37435D01*
X50872Y-37370D01*
X50703Y-37370D01*
X50546Y-37434D01*
X50427Y-37554D01*
X50362Y-37710D01*
X50362Y-37879D01*
X50426Y-38035D01*
X50482Y-38091D01*
X50482Y-40957D01*
X50458Y-40901D01*
X50339Y-40781D01*
X50183Y-40716D01*
X50014Y-40716D01*
X49857Y-40781D01*
X49738Y-40900D01*
X49714Y-40957D01*
X49714Y-34646D01*
X49769Y-34591D01*
X49834Y-34435D01*
X49834Y-34266D01*
X49769Y-34109D01*
X49650Y-33990D01*
X49494Y-33925D01*
X49325Y-33925D01*
X49169Y-33989D01*
X49049Y-34109D01*
X48984Y-34265D01*
X48984Y-34434D01*
X49048Y-34590D01*
X49104Y-34646D01*
X49104Y-43405D01*
X49110Y-43434D01*
X48991Y-43384D01*
X48563Y-43384D01*
X48167Y-43548D01*
X47864Y-43850D01*
X47699Y-44246D01*
X47699Y-44674D01*
X47863Y-45070D01*
X48165Y-45373D01*
X48561Y-45538D01*
X48989Y-45538D01*
X49385Y-45374D01*
X49688Y-45072D01*
X49852Y-44676D01*
X49853Y-44248D01*
X49760Y-44023D01*
X49864Y-44127D01*
X50066Y-44211D01*
X50285Y-44211D01*
X50487Y-44127D01*
X50642Y-43973D01*
X50662Y-43925D01*
X50691Y-43934D01*
X50964Y-43661D01*
X50858Y-43555D01*
X51070Y-43343D01*
X51176Y-43449D01*
X51282Y-43343D01*
X51494Y-43555D01*
X51388Y-43661D01*
X51661Y-43934D01*
X51690Y-43925D01*
X51709Y-43972D01*
X51864Y-44127D01*
X52066Y-44211D01*
X52285Y-44211D01*
X52487Y-44127D01*
X52642Y-43973D01*
X52645Y-43966D01*
X52992Y-43966D01*
X53108Y-43943D01*
X53132Y-43927D01*
X52999Y-44246D01*
X52999Y-44674D01*
X53163Y-45070D01*
X53465Y-45373D01*
X53861Y-45538D01*
X54289Y-45538D01*
X54685Y-45374D01*
X54988Y-45072D01*
X55152Y-44676D01*
X55153Y-44248D01*
X55153Y-46964D01*
X51449Y-46964D01*
X51449Y-44146D01*
X51176Y-43873D01*
X50903Y-44146D01*
X50933Y-44251D01*
X51177Y-44299D01*
X51419Y-44251D01*
X51449Y-44146D01*
X51449Y-46964D01*
X47523Y-46964D01*
X47523Y-27838D01*
X66649Y-27838D01*
X66649Y-46964D01*
M02*
